<svg width="655" height="204" viewBox="0 0 655 204" fill="none" xmlns="http://www.w3.org/2000/svg">
    <path d="M582.185 135.846C580.827 136.157 579.502 136.727 578.295 137.519C575.15 139.532 573.316 142.389 574.199 143.901C575.082 145.413 578.348 145.006 581.493 142.993C582.716 142.229 583.804 141.255 584.689 140.132C585.099 139.589 585.174 138.915 584.88 138.414L583.733 136.45C583.441 135.947 582.834 135.71 582.185 135.846Z" fill="#D5D6DB"/>
    <path d="M574.295 108.853C573.309 109.079 572.349 109.492 571.474 110.067C569.194 111.526 567.863 113.598 568.503 114.693C569.143 115.789 571.511 115.493 573.791 114.034C574.678 113.48 575.467 112.773 576.108 111.958C576.406 111.565 576.46 111.077 576.247 110.713L575.416 109.291C575.205 108.927 574.765 108.755 574.295 108.853Z" fill="#D5D6DB"/>
    <path d="M561.481 110.048C561.262 110.025 561.028 110.085 560.825 110.215L555.469 113.644C555.021 113.93 554.841 114.476 555.067 114.865C555.119 114.954 555.189 115.03 555.275 115.088L568.433 124.067L586.293 112.634L561.481 110.048Z" fill="#029BC5"/>
    <path d="M617.846 108.581L569.295 139.2L540.587 150.712L525.953 153.688L524.351 150.979L605.276 100.914C607.688 99.4161 610.373 98.4894 613.059 98.2283C614.236 98.1203 615.397 98.1524 616.516 98.3234C617.509 98.4672 618.45 98.7503 619.312 99.1644C620.273 99.6336 622.106 99.6777 622.697 100.62C622.699 100.619 624.089 104.954 617.846 108.581V108.581Z" fill="#E1E6E9"/>
    <path d="M569.983 135.277L548.922 168.69C548.659 169.159 548.813 169.682 549.266 169.858C549.544 169.966 549.885 169.92 550.172 169.738L555.52 166.334C556.549 165.68 557.46 164.85 558.198 163.897L599.001 116.046L569.983 135.277Z" fill="#029BC5"/>
    <path d="M516.992 134.141C516.642 134.024 516.225 134.088 515.872 134.314L511.447 137.147C510.844 137.533 510.602 138.269 510.907 138.792C510.965 138.891 511.04 138.978 511.131 139.05L523.487 148.868L536.523 140.681L516.992 134.141Z" fill="#029BC5"/>
    <path d="M527.666 150.694L520.987 160.01C520.889 160.143 520.911 160.311 521.037 160.383C521.128 160.435 521.252 160.425 521.352 160.357L525.484 157.732C525.516 157.711 525.545 157.686 525.569 157.657L535.323 145.832L527.666 150.694Z" fill="#029BC5"/>
    <path d="M615.699 98.756C614.545 98.578 613.348 98.5456 612.136 98.6589C610.951 100.31 610.192 102.162 609.934 104.03C609.915 104.405 610.217 104.673 610.61 104.628C610.732 104.614 610.854 104.571 610.963 104.502L618.58 99.6321C617.692 99.2005 616.722 98.9055 615.699 98.756Z" fill="#029BC5"/>
    <path d="M599.117 107.7L604.097 104.534L608.71 112.375L603.73 115.54L599.117 107.7Z" fill="#D5D6DB"/>
    <path d="M595.994 110.79C595.394 111.172 595.153 111.902 595.455 112.419L595.946 113.257C596.269 113.761 597.009 113.846 597.598 113.446C598.16 113.065 598.387 112.377 598.118 111.872L597.628 111.034C597.325 110.517 596.594 110.408 595.994 110.79V110.79Z" fill="#3A556A"/>
    <path d="M591.53 113.562C590.93 113.945 590.688 114.674 590.991 115.192L591.482 116.03C591.804 116.534 592.544 116.618 593.134 116.218C593.695 115.837 593.923 115.15 593.654 114.645L593.164 113.807C592.861 113.29 592.13 113.18 591.53 113.562V113.562Z" fill="#3A556A"/>
    <path d="M587.064 116.335C586.465 116.718 586.224 117.447 586.527 117.964L587.017 118.802C587.34 119.306 588.08 119.39 588.67 118.99C589.231 118.61 589.458 117.922 589.19 117.417L588.699 116.579C588.396 116.062 587.664 115.953 587.064 116.335V116.335Z" fill="#3A556A"/>
    <path d="M582.6 119.108C582 119.491 581.76 120.22 582.062 120.736L582.553 121.575C582.876 122.079 583.616 122.163 584.205 121.763C584.767 121.382 584.994 120.694 584.725 120.19L584.235 119.351C583.932 118.834 583.2 118.725 582.6 119.108V119.108Z" fill="#3A556A"/>
    <path d="M578.136 121.88C577.536 122.264 577.296 122.993 577.598 123.51L578.089 124.348C578.392 124.865 579.123 124.974 579.723 124.592C580.323 124.21 580.564 123.481 580.262 122.964L579.771 122.125C579.469 121.608 578.738 121.498 578.137 121.88C578.137 121.88 578.137 121.88 578.136 121.88Z" fill="#3A556A"/>
    <path d="M573.671 124.653C573.071 125.036 572.831 125.765 573.134 126.282L573.624 127.121C573.927 127.638 574.659 127.747 575.259 127.364C575.858 126.982 576.099 126.253 575.797 125.736L575.306 124.898C575.004 124.38 574.273 124.27 573.672 124.652C573.672 124.652 573.671 124.653 573.671 124.653Z" fill="#3A556A"/>
    <path d="M569.206 127.425C568.607 127.809 568.366 128.538 568.669 129.055L569.16 129.893C569.463 130.41 570.195 130.518 570.794 130.135C571.392 129.753 571.633 129.025 571.332 128.509L570.841 127.67C570.538 127.153 569.807 127.043 569.206 127.425Z" fill="#3A556A"/>
    <path d="M564.742 130.198C564.143 130.581 563.902 131.31 564.205 131.827L564.696 132.666C564.999 133.182 565.731 133.29 566.33 132.907C566.929 132.525 567.169 131.798 566.868 131.281L566.377 130.443C566.075 129.925 565.343 129.816 564.742 130.198Z" fill="#3A556A"/>
    <path d="M560.278 132.97C559.678 133.354 559.437 134.083 559.74 134.6L560.231 135.438C560.534 135.955 561.266 136.063 561.865 135.68C562.464 135.297 562.704 134.57 562.403 134.054L561.912 133.215C561.609 132.698 560.878 132.588 560.278 132.97Z" fill="#3A556A"/>
    <path d="M555.812 135.744C555.212 136.126 554.971 136.855 555.273 137.372L555.274 137.373L555.765 138.211C556.068 138.728 556.8 138.836 557.4 138.453C557.998 138.071 558.238 137.343 557.937 136.827L557.446 135.988C557.144 135.471 556.412 135.361 555.812 135.744Z" fill="#3A556A"/>
    <path d="M551.349 138.515C550.749 138.898 550.508 139.627 550.811 140.144L550.811 140.145L551.302 140.983C551.605 141.5 552.337 141.607 552.937 141.225C553.535 140.842 553.776 140.115 553.474 139.599L552.983 138.76C552.681 138.243 551.949 138.133 551.349 138.515Z" fill="#3A556A"/>
    <path d="M98.1854 88.8463C96.8265 89.1574 95.5024 89.7268 94.2951 90.5186C91.15 92.5316 89.316 95.3894 90.1991 96.9012C91.0821 98.413 94.3476 98.0059 97.4927 95.9929C98.7162 95.2288 99.8037 94.2549 100.689 93.1315C101.099 92.5888 101.174 91.9152 100.88 91.4138L99.7331 89.4498C99.4413 88.9467 98.8339 88.7102 98.1854 88.8463Z" fill="#D5D6DB"/>
    <path d="M90.2947 61.8534C89.3093 62.0792 88.3491 62.4923 87.4736 63.0665C85.1936 64.5257 83.863 66.5979 84.5028 67.6932C85.1426 68.7885 87.5113 68.4931 89.7911 67.034C90.6782 66.4796 91.4667 65.7731 92.1084 64.9584C92.4058 64.5651 92.4601 64.0771 92.247 63.7135L91.4164 62.2914C91.205 61.9268 90.7649 61.7549 90.2947 61.8534Z" fill="#D5D6DB"/>
    <path d="M77.4813 63.0481C77.2621 63.025 77.0282 63.0847 76.8252 63.2149L71.4692 66.6436C71.0212 66.9296 70.8409 67.4762 71.0668 67.8648C71.1185 67.9538 71.1893 68.0297 71.2754 68.0881L84.4335 77.0668L102.293 65.6338L77.4813 63.0481Z" fill="#029BC5"/>
    <path d="M133.846 61.5812L85.2949 92.2001L56.5867 103.712L41.953 106.688L40.3506 103.979L121.276 53.9145C123.688 52.4161 126.373 51.4894 129.059 51.2283C130.236 51.1203 131.397 51.1524 132.516 51.3234C133.509 51.4672 134.45 51.7503 135.312 52.1644C136.273 52.6336 138.106 52.6777 138.697 53.6203C138.699 53.6187 140.089 57.954 133.846 61.5812V61.5812Z" fill="#E1E6E9"/>
    <path d="M85.9833 88.2765L64.9219 121.69C64.6587 122.159 64.813 122.682 65.2661 122.858C65.5442 122.966 65.885 122.92 66.1716 122.738L71.5199 119.334C72.5486 118.68 73.4601 117.85 74.198 116.897L115.001 69.0462L85.9833 88.2765Z" fill="#029BC5"/>
    <path d="M32.992 87.141C32.642 87.0236 32.2249 87.088 31.8724 87.3136L27.4468 90.1469C26.8438 90.5326 26.6021 91.2689 26.9068 91.7916C26.9648 91.891 27.0403 91.9783 27.1309 92.0501L39.4869 101.868L52.5234 93.6815L32.992 87.141Z" fill="#029BC5"/>
    <path d="M43.6655 103.694L36.9867 113.01C36.8888 113.143 36.9113 113.311 37.037 113.383C37.1276 113.435 37.2516 113.425 37.3525 113.357L41.4837 110.732C41.5158 110.711 41.5449 110.686 41.5689 110.657L51.3234 98.8319L43.6655 103.694Z" fill="#029BC5"/>
    <path d="M131.699 51.756C130.545 51.578 129.348 51.5456 128.136 51.6589C126.951 53.3104 126.192 55.1622 125.934 57.0297C125.915 57.4046 126.217 57.6726 126.61 57.6283C126.732 57.6144 126.854 57.571 126.963 57.5018L134.58 52.6321C133.692 52.2005 132.722 51.9055 131.699 51.756Z" fill="#029BC5"/>
    <path d="M115.116 60.6998L120.097 57.5342L124.71 65.3746L119.729 68.5402L115.116 60.6998Z" fill="#D5D6DB"/>
    <path d="M111.994 63.7894C111.394 64.172 111.153 64.9016 111.455 65.4189L111.946 66.2571C112.269 66.761 113.009 66.8454 113.598 66.4454C114.16 66.0644 114.387 65.377 114.118 64.8721L113.628 64.0339C113.325 63.517 112.594 63.4075 111.994 63.7894V63.7894Z" fill="#3A556A"/>
    <path d="M107.53 66.5619C106.93 66.9444 106.689 67.674 106.992 68.1914L107.482 69.0295C107.805 69.5335 108.545 69.6178 109.135 69.2178C109.696 68.8369 109.923 68.1494 109.655 67.6445L109.164 66.8064C108.861 66.2897 108.13 66.1801 107.53 66.5619V66.5619Z" fill="#3A556A"/>
    <path d="M103.064 69.3354C102.465 69.7184 102.224 70.4472 102.527 70.9641L103.017 71.8022C103.34 72.3061 104.08 72.3905 104.67 71.9905C105.231 71.6095 105.458 70.9221 105.19 70.4172L104.699 69.5791C104.396 69.0618 103.664 68.9527 103.064 69.3354V69.3354Z" fill="#3A556A"/>
    <path d="M98.6002 72.1077C98.0008 72.4908 97.7603 73.2195 98.0629 73.7364L98.5534 74.5746C98.8763 75.0785 99.616 75.1629 100.206 74.7629C100.767 74.3819 100.995 73.6945 100.726 73.1896L100.235 72.3515C99.9322 71.8343 99.2003 71.7252 98.6002 72.1077V72.1077Z" fill="#3A556A"/>
    <path d="M94.136 74.8802C93.5363 75.2635 93.2956 75.9925 93.5984 76.5097L94.0892 77.3482C94.3918 77.8651 95.1235 77.9742 95.7234 77.5918C96.3233 77.2094 96.5643 76.4803 96.2617 75.9634L95.7708 75.1249C95.469 74.6075 94.7376 74.4977 94.1373 74.8794C94.1368 74.8798 94.1366 74.8799 94.136 74.8802Z" fill="#3A556A"/>
    <path d="M89.6712 77.6529C89.0714 78.0362 88.8308 78.7653 89.1335 79.2824L89.6244 80.1209C89.927 80.6378 90.6586 80.7469 91.2585 80.3645C91.8585 79.9821 92.0995 79.253 91.7969 78.7361L91.306 77.8976C91.0042 77.3802 90.2728 77.2704 89.6725 77.6521C89.672 77.6525 89.6715 77.6528 89.6712 77.6529Z" fill="#3A556A"/>
    <path d="M85.2063 80.4254C84.6066 80.8086 84.3659 81.5377 84.6687 82.0548L85.1595 82.8933C85.4629 83.4097 86.1949 83.5176 86.7941 83.1347C87.3924 82.7525 87.6329 82.025 87.3317 81.5087L86.8409 80.6702C86.5384 80.1529 85.8068 80.0433 85.2063 80.4254Z" fill="#3A556A"/>
    <path d="M80.7425 83.1979C80.1427 83.5811 79.9021 84.3102 80.2048 84.8273L80.6957 85.6658C80.999 86.1823 81.731 86.2902 82.3303 85.9073C82.9285 85.525 83.169 84.7975 82.8678 84.2812L82.377 83.4427C82.0745 82.9254 81.3429 82.8157 80.7425 83.1979Z" fill="#3A556A"/>
    <path d="M76.2776 85.9703C75.6779 86.3536 75.4372 87.0826 75.7399 87.5997L76.2308 88.4382C76.5342 88.9547 77.2662 89.0626 77.8654 88.6797C78.4637 88.2974 78.7042 87.5699 78.403 87.0536L77.9121 86.2152C77.6094 85.698 76.8778 85.5884 76.2776 85.9703Z" fill="#3A556A"/>
    <path d="M71.8118 88.7435C71.2119 89.1259 70.9709 89.855 71.2735 90.3719L71.2741 90.373L71.765 91.2115C72.0683 91.7279 72.8003 91.8358 73.3996 91.4529C73.9979 91.0707 74.2384 90.3432 73.9372 89.8268L73.4463 88.9883C73.1438 88.471 72.4122 88.3614 71.8118 88.7435Z" fill="#3A556A"/>
    <path d="M67.3489 91.5153C66.749 91.8977 66.508 92.6267 66.8106 93.1436L66.8112 93.1447L67.3021 93.9832C67.6055 94.4996 68.3375 94.6075 68.9368 94.2246C69.535 93.8424 69.7755 93.1149 69.4743 92.5986L68.9835 91.7601C68.6807 91.243 67.9491 91.1333 67.3489 91.5153Z" fill="#3A556A"/>
</svg>
