<svg width="84" height="84" viewBox="0 0 84 84" fill="none" xmlns="http://www.w3.org/2000/svg">
    <path d="M42 83.6666C36.2361 83.6666 30.8194 82.5721 25.75 80.3833C20.6805 78.1971 16.2708 75.2291 12.5208 71.4791C8.77081 67.7291 5.80276 63.3194 3.61665 58.2499C1.42776 53.1805 0.333313 47.7638 0.333313 41.9999C0.333313 36.236 1.42776 30.8194 3.61665 25.7499C5.80276 20.6805 8.77081 16.2708 12.5208 12.5208C16.2708 8.77075 20.6805 5.80131 25.75 3.61242C30.8194 1.42631 36.2361 0.333252 42 0.333252C52.1389 0.333252 61.0097 3.50964 68.6125 9.86242C76.218 16.218 80.9583 24.1874 82.8333 33.7708H74.2916C72.9722 28.7013 70.5944 24.1694 67.1583 20.1749C63.7194 16.1833 59.5 13.1805 54.5 11.1666V12.8333C54.5 15.1249 53.6847 17.086 52.0541 18.7166C50.4208 20.3499 48.4583 21.1666 46.1666 21.1666H37.8333V29.4999C37.8333 30.6805 37.4347 31.6694 36.6375 32.4666C35.8375 33.2666 34.8472 33.6666 33.6666 33.6666H25.3333V41.9999H33.6666V54.4999H29.5L9.49998 34.4999C9.29165 35.7499 9.09998 36.9999 8.92498 38.2499C8.75276 39.4999 8.66665 40.7499 8.66665 41.9999C8.66665 51.0971 11.8611 58.9096 18.25 65.4374C24.6389 71.9652 32.5555 75.2638 42 75.3333V83.6666ZM77 78.6666L66.5833 68.2499C65.125 69.0833 63.5625 69.7777 61.8958 70.3333C60.2291 70.8888 58.4583 71.1666 56.5833 71.1666C51.375 71.1666 46.9472 69.3444 43.3 65.6999C39.6555 62.0527 37.8333 57.6249 37.8333 52.4166C37.8333 47.2083 39.6555 42.7805 43.3 39.1333C46.9472 35.4888 51.375 33.6666 56.5833 33.6666C61.7916 33.6666 66.2194 35.4888 69.8666 39.1333C73.5111 42.7805 75.3333 47.2083 75.3333 52.4166C75.3333 54.2916 75.0555 56.0624 74.5 57.7291C73.9444 59.3958 73.25 60.9583 72.4166 62.4166L82.8333 72.8333C83.5972 73.5971 83.9791 74.5694 83.9791 75.7499C83.9791 76.9305 83.5972 77.9027 82.8333 78.6666C82.0694 79.4305 81.0972 79.8124 79.9166 79.8124C78.7361 79.8124 77.7639 79.4305 77 78.6666V78.6666ZM56.5833 62.8333C59.5 62.8333 61.9653 61.8263 63.9791 59.8124C65.993 57.7985 67 55.3333 67 52.4166C67 49.4999 65.993 47.0346 63.9791 45.0208C61.9653 43.0069 59.5 41.9999 56.5833 41.9999C53.6666 41.9999 51.2014 43.0069 49.1875 45.0208C47.1736 47.0346 46.1666 49.4999 46.1666 52.4166C46.1666 55.3333 47.1736 57.7985 49.1875 59.8124C51.2014 61.8263 53.6666 62.8333 56.5833 62.8333Z" fill="#F24E1E"/>
</svg>
