<svg width="376" height="12" viewBox="0 0 376 12" fill="none" xmlns="http://www.w3.org/2000/svg">
    <path d="M54.8286 -2.53796L55.7696 -2.69614L53.9385 -2.92292L54.8163 -3.08892C55.6964 -3.0874 56.8368 -2.83866 57.4573 -2.97083C57.5332 -3.09879 56.5748 -3.13986 56.3302 -3.24181C56.1138 -3.34631 55.9372 -3.45013 55.8024 -3.55202C56.2818 -3.55092 56.8087 -3.52628 57.3521 -3.47953C58.0829 -3.40319 58.7997 -3.36607 59.4234 -3.37229C60.6989 -3.35167 61.9312 -3.37224 63.3179 -3.36771L62.8565 -3.67567L64.6437 -3.60362C64.8331 -3.58016 65.0588 -3.61789 65.245 -3.58887C66.7938 -3.34329 67.4492 -3.47711 68.1927 -3.58807C68.3452 -3.61678 68.5288 -3.63822 68.7388 -3.65182C70.8049 -3.59299 72.668 -3.24878 74.5288 -3.07207C74.879 -3.02695 75.2149 -2.96904 75.5127 -2.90243C76.1599 -2.77295 76.8798 -2.66724 77.6065 -2.59497C78.3333 -2.52269 79.0437 -2.48616 79.6728 -2.48871C81.064 -2.49157 82.6357 -2.40593 84.2359 -2.24008C84.7117 -2.18545 85.1879 -2.14941 85.634 -2.13426C86.0801 -2.11911 86.4865 -2.12517 86.8269 -2.15207L87.9088 -1.97627C88.3778 -2.04761 88.9724 -2.08675 89.6567 -2.09131C90.3409 -2.09587 91.1005 -2.06577 91.8893 -2.00283C92.7299 -1.93455 93.5838 -1.88852 94.4559 -1.81634C96.2575 -1.67832 98.0109 -1.59392 99.6616 -1.56575C102.12 -1.48225 104.521 -1.4177 107.001 -1.31361C108.553 -1.26336 110.064 -1.23573 111.527 -1.23085C113.279 -1.21119 115.175 -1.11605 117.122 -0.950018C117.029 -0.794239 116.175 -0.840261 115.602 -0.845533C113.754 -0.871425 111.862 -0.938519 109.96 -0.988921C109.104 -1.0086 108.271 -1.01605 107.466 -1.01122C106.121 -1.01768 104.702 -1.05919 103.236 -1.13504C100.919 -1.2185 98.6754 -1.25861 96.5292 -1.25498C96.361 -1.24881 96.2068 -1.23788 96.0693 -1.22236C96.0406 -1.20893 96.035 -1.19198 96.0529 -1.17315C96.0708 -1.15433 96.1117 -1.13424 96.1716 -1.11484C96.2315 -1.09543 96.3084 -1.07735 96.3951 -1.06231C96.4817 -1.04728 96.5752 -1.0358 96.6664 -1.02897C97.5188 -0.9234 98.4343 -0.810013 99.2382 -0.794063C99.2692 -0.792869 99.3023 -0.790148 99.3351 -0.78609C99.3679 -0.782033 99.3995 -0.776742 99.4276 -0.770603C101.227 -0.54773 102.707 -0.585445 104.108 -0.549184C106.436 -0.451184 108.679 -0.405408 110.805 -0.412547C111.126 -0.412062 111.473 -0.399322 111.833 -0.374789C114.059 -0.275339 116.141 -0.264217 117.981 -0.341923C118.738 -0.361611 119.442 -0.405805 120.256 -0.406544C120.757 -0.409586 121.193 -0.437788 121.538 -0.489463C121.884 -0.541139 122.13 -0.615218 122.264 -0.707246C122.607 -0.658794 122.956 -0.615613 123.306 -0.57822C123.515 -0.556839 123.715 -0.551159 123.866 -0.562348C124.018 -0.573536 124.109 -0.600756 124.121 -0.638501C124.184 -0.744209 123.707 -0.797294 123.293 -0.842561C123.543 -0.865231 123.824 -0.878568 124.13 -0.88225C125.854 -0.906404 127.703 -0.877896 129.637 -0.797352C131.139 -0.700943 132.338 -0.779413 133.917 -0.643457C134.107 -0.619996 134.263 -0.65443 134.437 -0.662698C134.892 -0.706236 135.458 -0.716022 136.087 -0.6912C136.716 -0.666377 137.389 -0.607695 138.046 -0.520245C138.866 -0.759166 140.636 -0.486219 141.943 -0.461688C142.345 -0.340185 141.883 -0.361545 141.864 -0.328164C141.844 -0.294782 141.864 -0.328171 141.706 -0.347722C140.401 -0.175652 138.613 -0.138132 136.593 -0.240435C136.219 -0.240009 135.863 -0.232171 135.528 -0.216993C135.021 -0.19551 134.449 -0.197655 133.838 -0.223334C133.17 -0.242193 132.556 -0.233236 132.026 -0.196896C131.721 -0.197488 131.464 -0.179283 131.277 -0.143957C131.09 -0.108631 130.98 -0.0573284 130.958 0.00518023C131.161 0.0533705 131.387 0.0974645 131.626 0.135713C132.874 0.28673 134.118 0.34924 135.114 0.310944C136.847 0.244959 138.91 0.309349 140.754 0.286823C142 0.277698 143.326 0.303691 144.706 0.36432C144.706 0.36432 144.67 0.425519 144.667 0.431082C144.83 0.45758 145.002 0.478839 145.172 0.493644C145.172 0.493644 145.172 0.493645 145.188 0.465827C145.113 0.439112 145.01 0.413982 144.892 0.393344L144.482 0.342512C144.761 0.329283 145.022 0.289898 145.312 0.313962C145.925 0.358668 146.51 0.377542 147.033 0.369462C147.556 0.361381 148.006 0.326508 148.356 0.266939C148.976 0.19059 149.747 0.155872 150.619 0.165022C151.288 0.156686 151.932 0.138772 152.549 0.111367C152.549 0.111367 152.588 0.0446111 152.88 0.00912881C152.604 -0.0346331 152.315 -0.0703692 152.028 -0.0964382C150.779 -0.161568 149.526 -0.221133 148.299 -0.26566C147.847 -0.270471 147.422 -0.26301 147.032 -0.243424C145.952 -0.220505 144.739 -0.253035 143.463 -0.339115C143.463 -0.339115 143.21 -0.370393 143.084 -0.386033C143.442 -0.532787 144.676 -0.385869 145.176 -0.485254C145.48 -0.483446 146.015 -0.470948 145.996 -0.497113C145.955 -0.532026 145.95 -0.564463 145.982 -0.592091C146.014 -0.61972 146.082 -0.641861 146.182 -0.656921C146.281 -0.671984 146.41 -0.679596 146.558 -0.67921C146.706 -0.678822 146.87 -0.670442 147.039 -0.654682C148.444 -0.569418 149.767 -0.545706 150.928 -0.585001C151.368 -0.584244 151.862 -0.558972 152.298 -0.55265C152.566 -0.545034 152.81 -0.549269 153.017 -0.565121C154.073 -0.681863 155.493 -0.690389 157.064 -0.589418C157.824 -0.553115 158.534 -0.548262 159.157 -0.575103C159.6 -0.579906 159.788 -0.496907 160.104 -0.457806L161.445 -0.375382L159.723 -0.272102C160.091 -0.0354174 160.384 0.0426247 160.985 0.0573704C161.862 0.0796373 162.716 0.0896969 163.542 0.087487C164.154 0.0855414 164.658 0.034571 165.486 0.125104C165.632 0.139871 165.772 0.144649 165.884 0.138642C166.853 0.0582657 168.02 0.0398196 169.305 0.0845627C169.97 -0.0659458 171.104 0.0803877 172.152 0.198292C172.49 0.0849194 171.877 0.0328776 171.512 -0.0362977C172.388 -0.0292163 173.272 -0.0332602 174.177 -0.0167062C174.449 -0.0227315 174.761 -0.0124229 175.086 0.0134106C175.412 0.0392431 175.743 0.0798925 176.054 0.132182C176.206 0.165969 176.389 0.191396 176.565 0.203188C176.741 0.214977 176.896 0.212227 176.999 0.195506C177.469 0.146192 178.222 0.191613 178.61 0.108313C178.748 0.0891562 178.945 0.0864818 179.167 0.100759C179.388 0.115034 179.619 0.145336 179.818 0.186233C179.6 0.198993 179.406 0.219086 179.24 0.24607C178.646 0.333725 178.864 0.480188 179.619 0.693119C180.778 0.681409 181.962 0.684733 183.036 0.644603C183.635 0.608579 184.369 0.61984 185.155 0.677125C185.941 0.734407 186.749 0.835442 187.487 0.968864C187.754 1.02017 188.058 1.0557 188.34 1.06841C188.621 1.08112 188.858 1.07007 189.005 1.03745C189.096 0.999727 189.124 0.951984 189.087 0.898361L188.33 0.804525C188.33 0.804525 188.359 0.754453 188.366 0.743326L189.455 0.734912C190.032 0.73462 190.633 0.74937 191.178 0.745168C191.978 0.717224 192.891 0.732799 193.861 0.790928C194.756 0.850535 195.636 0.895589 196.493 0.925695C197.321 0.956682 197.922 0.857894 198.711 0.842118C199.307 0.830226 199.963 0.842935 200.654 0.879746C201.847 0.945035 202.942 0.945157 203.839 0.880098C204.885 1.23062 205.394 1.28761 206.365 1.1929L206.821 1.16584L206.946 1.24102L207.295 1.22449C207.948 1.20976 208.6 1.19504 209.281 1.18979C210.228 1.22232 211.25 1.30984 212.248 1.4438C212.438 1.46726 212.695 1.54697 212.862 1.60937C213.028 1.67178 213.391 1.86004 213.657 1.98259C213.367 2.07206 213.045 2.15761 212.815 2.26046C212.792 2.27803 212.794 2.29898 212.821 2.32163C212.849 2.34428 212.901 2.36799 212.973 2.39087C213.045 2.41374 213.135 2.43513 213.237 2.45333C213.338 2.47153 213.447 2.48602 213.556 2.49565C213.768 2.51639 213.978 2.53021 214.176 2.53656C215.151 2.5475 216.086 2.53937 216.969 2.51224C217.292 2.47398 217.734 2.47034 218.224 2.50192C218.715 2.5335 219.227 2.59848 219.678 2.68655C220.835 2.63368 222.178 2.6493 223.616 2.73233C225.137 2.68183 226.974 2.78396 228.395 2.67331C228.362 2.72895 228.509 2.82473 228.714 2.87992C229.037 2.96375 229.403 3.04144 229.797 3.1097L232.802 3.24297C232.914 3.3115 233.055 3.38087 233.221 3.45018C233.336 3.50493 233.534 3.55851 233.776 3.59955C234.017 3.64059 234.282 3.66588 234.514 3.67005C235.112 3.69035 235.614 3.64495 236.327 3.75713C235.229 3.86318 233.748 3.84909 232.148 3.71738C230.645 3.6172 229.199 3.56714 227.865 3.56904C227.424 3.56828 226.845 3.57413 226.707 3.63473C226.402 3.80599 225.605 3.77892 224.675 3.74733C223.944 3.71275 223.277 3.71663 222.728 3.75865C222.179 3.80068 221.763 3.87965 221.516 3.98907C221.453 4.09477 221.603 4.185 222.244 4.24651L224.911 4.49316C225.304 4.46145 225.677 4.42391 226.028 4.3807C226.62 4.32331 227.35 4.30756 228.163 4.33467C228.976 4.36178 229.849 4.43102 230.714 4.53701C231.156 4.59175 231.597 4.64649 231.918 4.62048C232.199 4.5906 232.458 4.55483 232.693 4.51343C232.74 4.48568 232.759 4.45374 232.749 4.41885C232.919 4.43507 233.089 4.45617 233.254 4.48141C234.571 4.77585 235.59 4.77075 236.517 4.69438C236.767 4.67168 236.958 4.63559 237.212 4.60733C237.466 4.57906 237.556 4.54238 237.786 4.55305C239.627 4.64962 240.157 4.32709 241.708 4.34004C241.784 4.32744 241.831 4.30861 241.845 4.28527C241.858 4.26194 241.839 4.23486 241.787 4.20652C241.678 4.18093 241.551 4.15893 241.419 4.14253C241.286 4.12613 241.152 4.11587 241.03 4.11268C240.316 4.07129 239.685 4.08398 239.246 4.14858C238.935 4.17498 238.606 4.19602 238.26 4.21157L236.707 3.7445C238.212 3.78732 239.635 3.78704 240.943 3.74367C241.229 3.71931 241.712 3.76127 242.114 3.76925L245.07 3.8129C245.678 3.81652 246.196 3.7433 247.044 3.91398C247.044 3.91398 247.603 3.94151 247.753 3.9182C247.902 3.8949 248.564 3.74995 248.959 3.65553C249.418 3.68245 250.052 3.75509 250.338 3.73074C250.837 3.67092 251.268 3.59423 251.625 3.50205L253.411 3.63364C253.409 3.75054 253.344 3.86051 253.217 3.96189C253.077 4.05966 253.082 4.17702 253.231 4.30437C253.379 4.43173 253.667 4.56546 254.07 4.69465L255.834 5.37885C256.121 5.42467 256.428 5.45551 256.712 5.46719C256.996 5.47887 257.244 5.47082 257.421 5.44413C258.18 5.3649 259.03 5.30296 259.789 5.22373C260.767 5.34494 260.516 5.54072 261.227 5.71245L263.532 5.99788C263.883 6.26238 264.241 6.51575 263.172 6.6043C262.96 6.61979 263.103 6.72114 262.909 6.76279C263.74 6.96129 264.654 7.02071 265.496 7.14297C265.829 7.23089 266.106 7.32397 266.316 7.41769C266.547 7.55882 267.014 7.70297 267.618 7.81904C268.221 7.9351 268.912 8.01375 269.541 8.03801C270.596 8.11232 271.677 8.22392 272.734 8.36782C273.095 8.41785 273.466 8.45432 273.823 8.47473C274.179 8.49515 274.512 8.49906 274.799 8.48619C275.822 8.46353 276.688 8.38562 277.34 8.25752C277.985 8.14881 278.855 8.09641 279.871 8.10508C281.607 8.32013 281.957 8.64418 283.008 8.9296L281.193 8.9616C281.127 9.07287 281.247 9.21317 280.503 9.2106C279.759 9.20803 280.137 9.3145 280.378 9.42201C280.463 9.4761 280.629 9.53173 280.847 9.5795C281.066 9.62726 281.324 9.66422 281.578 9.68412L283.123 9.82173C283.671 9.87411 284.201 9.89647 284.655 9.88637C285.11 9.87627 285.471 9.8341 285.698 9.76449C285.96 9.69838 286.321 9.65367 286.759 9.63308C287.318 9.57916 287.777 9.49896 288.12 9.39552L290.301 9.54623C290.394 9.44228 290.694 9.36939 291.149 9.3399C291.605 9.31039 292.189 9.32608 292.803 9.38432L294.273 9.47682C295.908 9.57774 296.266 9.54452 296.745 9.25145L294.785 8.72799C295.07 8.59011 295.345 8.46892 295.62 8.34772C295.132 8.17526 294.48 8.01215 293.731 7.87494C293.033 7.72751 292.314 7.58472 291.579 7.44712C290.781 7.30651 289.939 7.18425 288.948 7.02574C288.775 6.97447 288.524 6.88363 288.203 6.79612C287.882 6.71107 287.547 6.6277 287.199 6.54634C287.265 6.43507 287.324 6.33493 287.198 6.20576C287.808 6.24697 288.438 6.31906 289.031 6.41551C289.625 6.51197 290.163 6.62976 290.598 6.75827C290.671 6.78105 290.76 6.80246 290.86 6.82104C290.961 6.83961 291.069 6.85493 291.178 6.86594C292.249 6.9449 292.762 7.10985 293.286 7.3121C293.638 7.41549 294.093 7.50731 294.587 7.57481C295.534 7.69212 296.461 7.8428 297.367 7.97289C297.644 8.01623 297.932 8.05191 298.219 8.07845C299.166 8.16284 300.119 8.28084 301.029 8.42645C301.326 8.46346 301.611 8.51243 301.861 8.56928C302.11 8.62613 302.316 8.68919 302.462 8.75322C302.237 8.82336 302.115 8.9119 302.105 9.0135C302.065 9.08026 302.73 9.21636 303.044 9.31501C303.358 9.41365 302.742 9.36717 302.533 9.3771C301.674 9.39618 301.515 9.43617 302.029 9.65512C302.201 9.72396 302.315 9.79285 302.364 9.85749C302.413 9.92213 302.397 9.98116 302.315 10.0309C302.193 10.2367 301.822 10.4058 301.567 10.6071C301.963 10.7397 302.624 10.8814 302.696 11.0456C302.731 11.082 302.804 11.1206 302.911 11.1586C303.017 11.1965 303.154 11.2329 303.312 11.2651C303.727 11.3346 304.105 11.4177 304.416 11.508C304.727 11.5983 304.962 11.6933 305.104 11.7857C305.151 11.824 305.263 11.8645 305.418 11.8993C305.574 11.934 305.761 11.9604 305.942 11.9731C306.159 11.9887 306.353 11.9867 306.484 11.9674C306.615 11.948 306.674 11.913 306.647 11.8694C306.653 11.7874 306.624 11.702 306.562 11.6139C306.598 11.5527 306.634 11.4915 306.491 11.3901C307.138 11.4271 307.817 11.5012 308.455 11.6045C309.093 11.7077 309.665 11.836 310.109 11.9756C310.599 12.1199 311.052 12.2715 311.595 12.4404C311.483 12.6295 311.483 12.6295 312.641 12.964L318.779 13.1271L320.037 13.3486C321.211 13.5417 321.49 13.5284 322.226 13.4286L322.722 13.3348C323.764 13.4638 324.964 13.6124 325.616 13.3706C325.827 13.5282 325.965 13.5811 325.917 13.6051C325.606 13.8376 325.066 14.0349 324.317 14.1892C324.126 14.2253 323.992 14.2803 323.77 14.3125C323.053 14.4941 322.886 14.7747 323.305 15.097C323.512 15.2396 323.814 15.3856 324.2 15.5303C323.635 15.7312 322.887 15.8976 321.975 16.0252C321.202 16.1238 320.564 16.2559 320.082 16.4177C319.649 16.5809 319.001 16.7035 318.174 16.7786C317.755 16.8105 317.448 16.8735 317.286 16.9613C317.238 17.1989 317.349 17.4533 317.617 17.7188C317.667 17.7996 317.81 17.8869 318.035 17.9738C318.26 18.0607 318.56 18.1449 318.912 18.2197C318.912 18.2197 319.082 18.2766 319.164 18.3106C319.232 18.5983 318.977 18.8519 318.418 19.0543C318.326 19.1117 318.139 19.1532 317.875 19.1742C317.612 19.1953 317.283 19.1951 316.924 19.1738C316.165 19.1395 315.456 19.1353 314.722 19.116C313.93 19.0888 313.234 19.1102 312.704 19.1782C312.175 19.2461 311.833 19.3579 311.714 19.502C311.706 19.5427 311.683 19.5818 311.645 19.6188C311.622 19.6379 311.61 19.6584 311.608 19.68L313.294 20.1516L311.387 20.3393C311.275 20.5285 312.191 20.6419 312.65 20.7823L312.366 20.8607C312.001 20.905 311.509 20.8202 311.063 20.771L310.621 20.7163L310.569 20.8053C310.294 20.9265 309.29 20.7903 308.898 20.8791C308.507 20.968 308.786 21.0683 309.373 21.1648C309.781 21.2366 310.219 21.2938 310.654 21.3322C311.089 21.3706 311.51 21.3891 311.885 21.3864C312.109 21.3769 312.295 21.3552 312.431 21.3226C313.223 21.184 314.097 21.0648 315.048 20.966C315.777 20.8772 316.69 20.8395 317.723 20.8554C318.026 20.8487 318.392 20.8697 318.756 20.9147C319.119 20.9598 319.458 21.026 319.712 21.1017L320.247 21.1142C320.247 21.1142 320.54 21.1922 320.498 21.205C320.295 21.4362 320.531 21.7189 321.173 22.0111L320.615 22.0376C319.817 22.0105 320.323 22.1866 320.204 22.2734C319.637 22.257 318.901 22.1837 318.633 22.2938L318.231 22.2858L318.389 22.3054L318.58 22.2693L319.329 22.4338C318.974 22.4615 318.717 22.4953 318.403 22.5102C318.23 22.5231 318.092 22.546 317.997 22.5774C317.903 22.6088 317.854 22.6481 317.854 22.693C317.855 22.762 317.762 22.8201 317.583 22.8617C317.404 22.9033 317.145 22.9271 316.832 22.9307C316.458 22.9322 316.245 23.0072 316.025 23.0339L316.977 23.4862C316.977 23.4862 316.504 23.4275 316.762 23.5072L316.795 23.4516L317.371 23.5648C317.787 23.6641 318.078 23.6881 318.323 23.617C318.569 23.5459 318.513 23.6405 318.63 23.6133C318.587 23.6856 318.32 23.7361 318.091 23.7794C317.827 23.8134 317.528 23.8385 317.2 23.8541C317.791 24.1722 317.819 24.1816 316.956 24.2658C316.093 24.35 316.39 24.4765 315.668 24.4945C314.946 24.5126 315.767 24.7278 316.251 24.7697C316.609 24.7973 316.974 24.8403 317.322 24.8957C317.669 24.9511 317.99 25.0176 318.263 25.0906L318.118 25.3354C317.905 25.3152 317.692 25.2888 317.487 25.2572C316.787 25.1228 316.15 24.9962 315.528 25.0743L315.824 25.2604L313.652 25.1525C313.708 25.2919 314.039 25.4507 314.575 25.5953C314.494 25.6748 314.445 25.7585 314.427 25.8457C314.391 25.9069 314.176 25.8684 314.037 25.875C313.539 25.8853 313.131 25.9267 312.848 25.9958C312.564 26.0648 312.415 26.1594 312.413 26.2711C312.356 26.3656 313.121 26.5619 313.6 26.5554C314.794 26.5743 316.085 26.6471 317.404 26.7698C318.207 26.7857 318.321 26.537 319.643 26.7068C319.67 26.8216 319.5 26.9146 319.161 26.9717C318.821 27.0288 318.33 27.0468 317.762 27.0231C318.085 27.2782 319.875 27.3447 319.955 27.6113C319.509 27.5924 319.032 27.5481 318.572 27.4827C318.111 27.4173 317.683 27.3331 317.329 27.2383C317.253 27.215 317.157 27.1934 317.05 27.1757C316.944 27.158 316.83 27.1447 316.72 27.137C316.61 27.1293 316.506 27.1274 316.419 27.1316C316.332 27.1358 316.265 27.1459 316.223 27.161C316.471 27.2574 316.743 27.3688 317.054 27.473C317.365 27.5772 317.44 27.6223 317.665 27.6442C319.338 27.8514 320.133 28.2246 321.581 28.4696C321.96 28.5165 322.007 28.6657 321.678 28.6488C321.365 28.632 321.082 28.6342 320.86 28.6552C320.638 28.6762 320.486 28.7152 320.421 28.7679C320.179 28.8293 319.876 28.8782 319.522 28.9133C321.006 29.2963 322.776 29.6347 324.666 29.8968C325.024 29.9486 325.397 29.9801 325.731 29.9869C326.786 29.9872 327.905 30.0176 329.066 30.0774C329.478 30.0937 329.858 30.0922 330.187 30.0729C331.264 30.0272 332.12 30.1273 332.902 30.4092L334.196 30.8561C334.153 30.9284 333.936 31.009 333.769 31.1197L334.779 31.3584L342.492 30.8087L344.041 31.3409L346.261 31.3113C346.431 31.3267 346.602 31.3479 346.766 31.3739C347.215 31.531 347.566 31.682 348.054 31.8319C348.541 31.9818 349.411 32 350.018 32.1767C350.625 32.3534 351.233 32.357 351.984 32.462C352.054 32.5988 351.982 32.7219 351.77 32.8236C351.7 32.9405 351.319 33.0127 351.253 33.1239C351.26 33.2364 351.118 33.3319 350.84 33.4017C350.562 33.4715 350.156 33.5135 349.66 33.5239C348.271 33.7633 346.595 33.9338 344.684 34.0302C344.516 34.0372 344.376 34.0534 344.275 34.0778C344.173 34.1022 344.11 34.1342 344.091 34.1719C344.094 34.281 343.967 34.3753 343.718 34.4479C343.47 34.5205 343.107 34.5695 342.657 34.5914C342.537 34.5958 342.446 34.6095 342.396 34.6308C342.225 34.6445 342.101 34.6708 342.035 34.7071C341.968 34.7435 341.963 34.7886 342.019 34.8381C342.075 34.8877 342.19 34.94 342.353 34.99C342.517 35.04 342.723 35.086 342.951 35.1235C343.283 35.1841 343.622 35.242 343.967 35.2971C343.947 35.3305 343.605 35.3359 343.655 35.3659C343.79 35.4619 343.821 35.5519 343.746 35.6286C343.671 35.7054 343.492 35.7668 343.223 35.8082L345.067 36.5859C346.186 36.6936 347.283 36.8763 348.151 37.0993C348.152 37.1358 348.102 37.1664 348.006 37.1881C347.91 37.2097 347.771 37.2216 347.604 37.2226C347.154 37.2385 346.729 37.2695 346.244 37.2871C345.947 37.3002 345.701 37.3291 345.518 37.3721C345.336 37.4151 345.221 37.4714 345.18 37.5376L346.263 37.8269C345.916 37.8974 345.659 37.9312 345.43 37.9745C345.559 38.0655 345.783 38.1595 346.082 38.2494C346.381 38.3393 346.749 38.4226 347.156 38.4929C347.265 38.5074 347.376 38.518 347.483 38.5241C347.59 38.5301 347.691 38.5315 347.779 38.5282C348.617 38.429 349.597 38.6042 350.55 38.7699C351.502 38.9356 352.019 39.0355 352.722 39.1644L354.067 39.1817C354.408 39.2427 354.712 39.3144 354.954 39.3912C355.197 39.4679 355.372 39.5475 355.466 39.6236C355.393 39.746 354.755 39.679 354.375 39.6916C353.473 39.7678 352.287 39.7515 351.014 39.6455C350.698 39.6064 350.374 39.638 350.067 39.6417C349.404 39.657 348.767 39.6818 348.159 39.716C347.759 39.7479 347.384 39.7873 347.039 39.834C346.946 39.9898 348.4 40.1101 347.575 40.1871C347.859 40.2223 347.966 40.2713 348.112 40.2536C349.048 40.3547 349.97 40.4047 350.771 40.3978C352.309 40.3763 354.055 40.4473 355.867 40.6049C357.823 40.7683 359.698 40.8368 361.34 40.805C361.965 40.8032 362.664 40.8366 363.383 40.9028C364.232 40.9945 365.075 41.0521 365.858 41.072C366.117 41.0727 366.406 41.0883 366.701 41.1175C366.995 41.1468 367.288 41.1888 367.554 41.2403C367.531 41.2792 367.277 41.3075 367.334 41.3264C368.144 41.6179 368.472 41.9213 369.719 42.2191C370.572 42.3246 371.55 42.4458 372.108 42.3059C372.665 42.1659 372.465 42.0456 371.356 41.6872C371.597 41.6821 371.887 41.6988 372.175 41.7345C372.464 41.7703 372.732 41.8227 372.935 41.8827L373.894 42.1509L374.759 42.4072C374.683 42.5352 374.623 42.6353 374.561 42.7411C374.462 42.8533 374.57 42.99 374.871 43.1319C375.053 43.2093 375.211 43.2868 375.344 43.3636C375.884 43.6707 376.041 43.961 375.796 44.2019C375.326 44.5483 374.673 44.867 373.842 45.1543C372.965 45.4338 372.485 45.7864 371.762 46.0911C371.393 46.2298 370.946 46.3541 370.423 46.4627C369.433 46.7044 368.348 46.9343 367.354 47.1815C366.361 47.4286 365.239 47.6062 364.135 47.8099C362.492 48.0517 360.716 48.2605 358.817 48.4352C357.642 48.5883 356.435 48.7374 355.348 48.9134C354.064 49.1117 352.556 49.2541 350.861 49.337C349.364 49.4363 348.027 49.5832 346.874 49.7748C346.753 49.7956 346.658 49.8219 346.591 49.8532C346.383 50.0486 345.802 50.1863 344.935 50.2453C344.988 50.3025 345.055 50.3607 345.137 50.4196C345.257 50.4898 345.282 50.5554 345.208 50.6081C345.135 50.6607 344.966 50.698 344.724 50.7149C344.031 50.7633 343.455 50.8455 343.022 50.9579C342.862 50.986 342.764 51.0271 342.734 51.0775C342.704 51.1279 342.744 51.1861 342.85 51.2472C342.944 51.31 342.951 51.3678 342.87 51.4131C342.789 51.4585 342.623 51.4892 342.395 51.5013C341.808 51.5608 341.179 51.6086 340.514 51.6446C339.097 51.7238 337.449 51.7228 335.669 51.6418C335.48 51.6183 335.289 51.6544 335.068 51.627C333.81 51.5362 332.641 51.5221 331.703 51.5865C330.604 51.6116 329.455 51.6066 328.296 51.6184C326.621 51.6105 325.076 51.6583 323.705 51.7604C322.136 51.6617 321.255 51.8333 319.932 51.8366C318.71 51.8542 317.552 51.8964 316.468 51.963C314.721 52.0512 312.981 52.1283 311.26 52.2316C309.644 52.2808 308.157 52.3749 306.823 52.5123C306.312 52.5743 305.387 52.4777 305.039 52.6077C304.691 52.7378 303.988 52.7224 303.42 52.7656L301.629 52.8722C301.321 52.8975 300.982 52.9136 300.618 52.9201C298.952 52.9288 297.799 53.1025 296.253 53.1379L296.095 53.1184C293.35 53.3765 290.209 53.5182 286.763 53.5393C284.751 53.6185 282.551 53.6147 280.415 53.6727C279.906 53.7888 278.703 53.6457 278.064 53.7517C277.425 53.8577 276.382 53.7883 275.558 53.8057C274.735 53.8231 273.929 53.8667 273.049 53.8652C272.285 53.8657 271.639 53.913 271.172 54.0029C270.104 54.1515 268.802 54.2388 267.325 54.261C265.37 54.2996 263.522 54.3873 261.535 54.368C261.563 54.4763 261.441 54.5684 261.181 54.6349C260.921 54.7014 260.533 54.7398 260.056 54.7463C257.931 54.7876 256.003 54.8952 253.85 54.9271L253.273 54.9274L246.832 54.9895C245.096 55.0015 243.424 55.0214 241.654 55.035C240.991 54.9529 240.975 55.0943 240.516 55.0673C240.388 54.9977 240.237 54.967 240.011 55.0048L239.962 55.0882L232.61 55.1989C229.732 55.2799 226.705 55.3042 223.553 55.2716C222.806 55.2798 222.108 55.3074 221.471 55.3541C220.881 55.3711 220.265 55.3787 219.628 55.3766C218.766 55.3556 217.924 55.345 217.105 55.3448C214.951 55.3767 212.691 55.3595 210.333 55.3362C207.975 55.3128 206.188 55.3543 204.089 55.3511C202.667 55.3482 201.252 55.3342 199.781 55.3013C199.078 55.2859 198.213 55.2026 197.485 55.1722C196.757 55.1418 196.52 55.1423 196.424 55.1901C196.107 55.3241 195.311 55.2374 194.675 55.2244C193.435 55.2021 193.258 55.1564 192.921 54.8101L194.444 54.7C194.817 54.6645 195.286 54.6583 195.806 54.6819C196.327 54.7055 196.88 54.7582 197.414 54.835C197.624 54.8678 197.843 54.8938 198.06 54.9114C198.276 54.929 198.485 54.9378 198.675 54.9374C200.211 54.9186 201.725 54.8792 203.201 54.8471L203.417 54.826L203.431 54.5172C203.235 54.4868 203.033 54.4618 202.831 54.4429L195.427 54.2425C193.728 54.1933 191.963 54.0823 190.296 54.037C188.628 53.9917 187.73 53.964 186.436 53.9172C185.89 53.8906 185.333 53.8556 184.77 53.8124C184.802 53.7827 184.821 53.751 184.826 53.7178C184.856 53.6678 184.895 53.601 184.656 53.5474C184.395 53.4719 184.046 53.4073 183.678 53.3667C183.334 53.3399 182.999 53.3247 182.688 53.3217C181.187 53.2958 179.472 53.1327 177.909 52.8671L177.363 53.0444C175.016 52.9448 172.634 52.8468 170.183 52.7522C169.692 52.7264 169.177 52.6769 168.676 52.6074C168.139 52.5409 167.645 52.4021 167.08 52.3262C166.522 52.2715 165.968 52.2289 165.427 52.1991C165.574 52.1535 165.767 52.117 166 52.0909C166.23 52.0817 166.397 52.0532 166.477 52.0095C166.558 51.9658 166.548 51.9092 166.449 51.8479C166.274 51.7426 166.197 51.6435 166.577 51.6309C166.929 51.6069 167.18 51.5549 167.302 51.4811C167.424 51.4073 167.411 51.3148 167.265 51.2144C167.201 51.1557 167.156 51.0982 167.13 51.0424L166.972 51.0228C166.451 50.815 165.411 50.7399 164.665 50.5699C164.312 50.5205 163.948 50.4922 163.628 50.4892C162.803 50.4527 161.999 50.4367 161.145 50.3907C160.737 50.3695 160.311 50.3309 159.891 50.2772C159.291 50.2029 159.228 50.1951 158.879 49.925C159.42 49.9297 159.849 49.8894 160.093 49.8108C160.337 49.7322 160.382 49.6202 160.219 49.4938C159.773 49.2175 159.302 48.9263 157.283 48.73C157.941 48.7203 158.575 48.7011 159.181 48.6724C159.357 48.6663 159.49 48.646 159.56 48.6143C159.63 48.5826 159.634 48.541 159.573 48.4951C159.512 48.4492 159.388 48.4011 159.217 48.3574C159.046 48.3137 158.837 48.2763 158.618 48.2503C157.553 48.0941 156.441 47.9895 155.408 47.9484C154.538 47.9302 153.752 47.9404 152.736 47.9399L151.536 47.7913C151.556 47.7579 151.38 47.7122 151.425 47.6939C151.73 47.5226 152.066 47.3553 152.412 47.1712C151.859 47.0718 151.38 46.9519 151.03 46.825C150.679 46.6982 150.472 46.5696 150.431 46.4541C150.401 46.4192 150.409 46.3874 150.454 46.361C150.499 46.3346 150.58 46.3142 150.691 46.3012C151.007 46.2788 151.251 46.2361 151.404 46.1764C151.557 46.1166 151.615 46.0414 151.573 45.9565L150.64 45.6439C147.831 45.4208 145.073 45.2615 142.416 45.1688L140.018 45.0987C139.729 45.015 139.818 44.9784 140.09 44.9763C140.363 44.9741 141.128 44.9973 141.663 45.0098C142.125 45.0262 142.535 45.0154 142.854 44.9785C143.173 44.9416 143.389 44.8798 143.482 44.7992L142.677 44.4426C142.717 44.3759 142.773 44.2813 143.209 44.2876C143.508 44.2799 143.728 44.2463 143.834 44.1922C143.939 44.1382 143.925 44.0668 143.793 43.9896C143.773 43.9338 143.803 43.8829 143.882 43.8394C144.528 43.8358 145.17 43.8377 145.757 43.8208C146.03 43.8151 146.26 43.7945 146.433 43.7602C146.605 43.7259 146.715 43.6787 146.756 43.622C146.777 43.5666 146.725 43.5035 146.605 43.4378C146.485 43.3721 146.3 43.3057 146.065 43.2438C145.146 43.1673 144.306 43.1663 143.728 43.2411C143.522 43.2997 143.191 43.3317 142.779 43.3329C142.367 43.3341 141.893 43.3044 141.42 43.2478C140.878 43.1825 140.337 43.1538 139.894 43.1669C139.452 43.1799 139.136 43.2339 139.005 43.319C138.449 43.286 137.956 43.2607 137.469 43.2243C136.895 43.1784 136.352 43.1648 135.899 43.1852C135.175 43.1995 134.395 43.1911 133.576 43.1602C131.216 43.0828 128.852 43.0111 126.567 42.9789C125.962 42.9697 125.439 42.9945 124.841 42.9742C124.244 42.9539 123.771 43.0087 123.023 42.8982C122.88 42.881 122.737 42.87 122.604 42.866C122.471 42.862 122.352 42.8651 122.257 42.875C120.944 42.9624 119.404 42.9748 117.729 42.9114C115.433 42.8958 113.053 42.8519 110.755 42.8419C110.081 42.8505 109.444 42.8735 108.85 42.9106C108.399 42.9331 107.926 42.9483 107.434 42.9562C107.057 42.9632 106.697 42.9425 106.76 43.0638C106.824 43.1852 106.259 43.1092 105.933 43.0868C104.815 43.028 103.671 42.9483 102.516 42.8487C101.378 42.7405 100.263 42.6775 99.2373 42.6636C98.4966 42.6554 97.7328 42.6863 96.7805 42.5205C96.8168 42.4593 96.853 42.3981 97.0603 42.3342C96.2837 42.1584 95.3976 42.0071 94.4753 41.8929C93.553 41.7787 92.6211 41.7048 91.7565 41.6773L90.5644 41.3446C90.2708 41.3055 89.9712 41.277 89.6836 41.2609C89.396 41.2448 89.1266 41.2414 88.8916 41.2508C88.71 41.2557 88.4888 41.2433 88.2684 41.216C88.048 41.1887 87.8433 41.1483 87.6919 41.1023C87.4655 41.0437 87.1891 40.9931 86.897 40.957C86.605 40.9208 86.3105 40.9006 86.0503 40.8989C85.2312 40.8627 84.3568 40.7792 83.5167 40.6568C83.2987 40.5851 83.1621 40.5109 83.1237 40.4436C83.0853 40.3762 83.147 40.3186 83.3009 40.2777C83.5491 40.2056 83.6884 40.1137 83.7105 40.0077C83.7326 39.9016 83.6369 39.7835 83.4294 39.6606C83.3231 39.5852 83.2876 39.5137 83.325 39.4506C83.3624 39.3875 83.4719 39.334 83.647 39.2934C84.3005 39.1056 84.1257 39.0004 83.0565 38.6888C82.8828 38.6369 82.6734 38.5883 82.4417 38.5462C82.2099 38.5042 81.9609 38.4695 81.7103 38.4444C81.1223 38.3936 80.5423 38.3559 79.981 38.3318C79.6653 38.2927 79.3415 38.3242 78.9778 38.3091C77.159 38.2331 76.8928 38.1105 76.3037 37.8465L75.8744 37.656C75.0783 37.5016 74.2076 37.3735 73.325 37.2807C72.4424 37.1879 71.57 37.1328 70.7705 37.1194C70.4528 37.1184 70.0875 37.092 69.7306 37.0443C68.5692 36.8985 67.393 36.7976 66.28 36.7483C65.5864 36.7206 64.8388 36.6488 64.1269 36.5415C63.415 36.4343 62.7691 36.2962 62.2668 36.1438C61.8156 36.0065 61.2253 35.8833 60.578 35.7913C59.8203 35.6975 59.7502 35.5873 60.1733 35.5023C60.5964 35.4174 61.305 35.308 61.934 35.2187C62.1529 35.1884 62.2885 35.139 62.3258 35.0762C62.3631 35.0133 62.3005 34.9394 62.1451 34.8627C62.0453 34.7314 62.028 34.6068 62.0936 34.492C62.1287 34.4443 62.1045 34.3896 62.0226 34.3315C61.9408 34.2735 61.8032 34.2135 61.6191 34.1557C61.435 34.0978 61.2088 34.0433 60.9556 33.996C60.7024 33.9486 60.4281 33.9095 60.1513 33.8812C58.9832 33.7365 57.8466 33.5957 56.6555 33.49C56.1563 33.4402 55.6576 33.3784 55.1717 33.3062C54.177 33.1277 53.1128 32.9797 52.041 32.8707C51.5323 32.822 51.035 32.7368 50.6567 32.6336C49.4634 32.3555 48.3638 32.0631 47.378 31.7617C47.1403 31.6682 46.8294 31.577 46.4647 31.4938C46.1 31.4106 45.6893 31.3372 45.2585 31.2782C44.9112 31.2352 44.6285 31.1405 44.3609 31.0775C44.1664 30.9316 44.1456 30.7966 44.3005 30.6852C44.4554 30.5738 44.781 30.4897 45.2466 30.4407C45.6881 30.3819 46.1012 30.3136 46.4829 30.2415C46.943 30.1831 47.4899 30.1481 48.1033 30.1376C48.8299 30.1063 49.3671 30.0167 49.645 29.8806C47.6561 29.6343 45.7647 29.2806 44.0213 29.3633L42.6967 29.1395C42.7495 29.0505 42.7956 28.9726 42.8385 28.9003C43.1535 28.7686 43.2519 28.6026 43.1254 28.4162C43.021 28.3261 43.0304 28.2441 43.1526 28.1785C43.2748 28.1129 43.5055 28.066 43.8213 28.0426C45.6918 27.8025 47.855 27.6404 49.6092 27.368C50.1592 27.3169 50.803 27.2936 51.5137 27.2993C52.2011 27.2829 52.1724 27.1599 51.3812 27.0082C50.9372 26.9289 50.4846 26.8529 50.0251 26.7805C47.999 26.7684 47.1736 27.132 44.8615 27.0308L43.7898 26.5517C43.5001 26.5443 43.2188 26.5414 42.9478 26.543L39.071 26.7376C38.7481 26.7474 38.4967 26.7807 38.3455 26.8337C38.1942 26.8868 38.1491 26.9575 38.2154 27.0378C38.2416 27.136 38.1882 27.2261 38.0571 27.3048C37.9725 27.3599 38.0266 27.4332 38.2075 27.5086C38.6151 27.6785 38.0921 27.7033 37.7618 27.746C37.6774 27.7502 37.58 27.7497 37.4754 27.7447C37.3708 27.7396 37.2609 27.7301 37.1523 27.7167C37.0436 27.7032 36.9383 27.6861 36.8424 27.6663C36.7465 27.6465 36.662 27.6244 36.5937 27.6013C36.0118 27.4397 35.5028 27.2691 34.9308 27.0908C35.3369 26.9201 34.859 26.64 35.4928 26.4856C35.5636 26.4547 35.592 26.4171 35.5761 26.3751C35.5602 26.3331 35.5004 26.2875 35.4003 26.2412C35.1423 26.1217 35.0194 26.0051 35.044 25.9033C35.0687 25.8015 35.24 25.7181 35.5407 25.6614L35.5769 25.6002C34.7839 25.3945 34.994 25.2115 34.6825 24.9938L33.9196 24.8515C32.0216 24.5089 32.0183 24.5145 30.3843 24.5271C30.0549 24.3967 30.4734 24.3769 30.7872 24.362L33.4154 24.2157C35.1338 24.118 36.9022 24.0504 38.8218 24.0134C40.7414 23.9765 42.8814 23.8533 44.8656 23.7647C44.9659 23.7578 45.0426 23.7442 45.0894 23.7251C45.1361 23.7059 45.1514 23.6817 45.1341 23.6546C45.0553 23.6252 44.952 23.5969 44.832 23.5717C44.7121 23.5465 44.5784 23.5251 44.4409 23.509C43.8095 23.4308 43.1617 23.3804 42.4888 23.315L41.2345 23.2015L40.8486 23.0522C40.5974 22.9613 40.4258 22.8505 40.0918 22.7852C39.8164 22.7366 39.5176 22.6996 39.2263 22.6782C38.935 22.6569 38.6619 22.6518 38.4356 22.6637C37.808 22.6935 37.2402 22.7366 36.6408 22.7759C36.0415 22.8151 35.7112 22.8578 35.1915 22.877C34.1356 22.8858 33.1151 22.9089 32.1345 22.9463C31.3085 23.0348 30.5446 23.1397 29.8474 23.2602C29.4125 23.3079 29.0058 23.365 28.2632 23.3029C27.9109 23.2466 27.6071 23.1726 27.4055 23.0941C27.2039 23.0155 27.1176 22.9375 27.162 22.8739C27.2019 22.824 27.3147 22.7846 27.4898 22.7592C27.6649 22.7339 27.8965 22.7235 28.1628 22.7291C28.9082 22.7199 29.5975 22.6891 30.2167 22.6371C31.0787 22.543 32.128 22.5024 33.3034 22.5178C33.702 22.5313 33.9692 22.4808 34.3179 22.4643C34.6665 22.4477 34.9619 22.4067 35.3507 22.4369C36.5583 22.5148 37.1374 22.3954 37.8611 22.3179C38.1061 22.2835 38.2579 22.2279 38.2998 22.1572C38.3417 22.0865 38.272 22.0035 38.0985 21.9173C37.7645 21.7456 37.3559 21.5729 36.8791 21.402C36.6337 21.3179 36.3192 21.2381 35.9605 21.1689C35.6018 21.0996 35.2084 21.0426 34.8113 21.0025C34.5737 20.8974 34.4469 20.794 34.4425 20.7017C34.438 20.6093 34.5561 20.5311 34.7859 20.4739C35.3715 20.3433 35.8907 20.2106 37.203 20.2835C37.82 20.3114 38.4006 20.3167 38.9218 20.2993C40.078 20.2755 41.4115 20.3277 42.7969 20.4508C43.1554 20.4824 43.5077 20.5039 43.8435 20.5147C46.2385 20.5904 48.5204 20.6282 50.809 20.6548C52.0213 20.6676 53.2436 20.6638 54.5092 20.7011C57.4772 20.782 60.179 20.7404 63.0438 20.7668C64.5442 20.7803 65.8872 20.7258 67.0023 20.6061C67.2194 20.5659 67.4059 20.5191 67.5596 20.4661C66.8206 20.327 66.009 20.2169 65.2023 20.1462C64.3957 20.0756 63.6211 20.0469 62.9528 20.0627C62.5854 20.1017 62.1104 20.1088 61.5811 20.0833C61.0517 20.0578 60.4886 20.0007 59.9546 19.9183L61.5072 19.8717C62.5367 19.85 63.5912 19.8432 64.5924 19.8119C66.1832 19.7581 67.6574 19.672 69.3047 19.6371C70.6346 19.6051 71.8247 19.5231 72.8376 19.3939C73.5693 19.2996 74.4051 19.2328 75.3278 19.1947C75.9837 19.1744 75.9837 19.1744 76.403 18.9815C76.0703 18.8567 75.6402 18.8392 75.2349 18.8368C72.8055 18.7583 70.4936 18.7445 68.3462 18.7958C67.2627 18.8004 66.3015 18.8533 65.5087 18.952C65.3146 18.9937 64.8179 18.9739 64.4193 18.9604C63.1697 18.9398 61.9753 18.9458 60.8506 18.9783C59.2956 19.0324 57.5637 19.0195 55.7222 18.9403C55.373 18.8433 55.7749 18.8513 55.7947 18.8179C57.221 18.7556 58.619 18.6839 60.0735 18.6312C60.4711 18.6124 60.8962 18.6031 61.3438 18.6034C63.0151 18.6361 64.4077 18.5455 65.3267 18.3442C65.3729 18.2663 65.9774 18.2755 66.2446 18.225C66.376 18.1813 66.4635 18.1298 66.5046 18.0721C66.1154 17.9283 65.6753 17.9275 65.3365 17.9274C64.3534 17.9434 63.4077 17.9739 62.5038 18.0185C61.6636 18.061 60.7335 18.0723 59.7388 18.0523C59.0047 18.033 58.3771 18.0628 57.6364 18.0546C57.2346 18.0375 56.8187 18.0101 56.3972 17.9728C56.8666 17.8726 57.5046 17.811 58.2664 17.7923C58.8441 17.7324 59.5664 17.7144 59.6587 17.5586C59.3859 17.4472 59.0819 17.4454 58.8378 17.4569C58.3298 17.4565 57.8391 17.4635 57.3682 17.478C56.3699 17.5096 55.2889 17.5101 54.1481 17.4793C53.5474 17.4678 52.9774 17.4712 52.4476 17.4896C51.247 17.5141 50.0964 17.5687 48.9972 17.5938C46.7454 17.6195 44.6916 17.7115 42.5279 17.76C42.0463 17.772 41.6147 17.8141 40.98 17.7415C40.3453 17.6688 40.317 17.6594 40.2421 17.6142C40.0645 17.539 40.0107 17.466 40.0918 17.4105C40.2177 17.3586 40.4629 17.3297 40.7839 17.329C42.7181 17.2465 44.5526 17.1306 46.276 16.982C47.0345 16.9523 47.699 16.8916 48.2464 16.8021C48.6806 16.7404 49.1957 16.6996 49.7754 16.6809C50.6186 16.6363 51.4976 16.6037 52.4089 16.5831C52.8329 16.572 53.1934 16.539 53.4693 16.4859C53.7451 16.4329 53.9307 16.361 54.015 16.2744L52.8979 15.9867C52.7223 15.9733 52.5482 15.9617 52.3763 15.952L43.1038 16.1592L42.1855 16.1649C41.179 16.1477 40.9331 16.1053 39.9784 15.7721C42.1571 15.6937 43.8699 15.4652 44.946 15.1093C44.6874 15.0711 44.4222 15.0382 44.1567 15.0116C42.4155 14.9274 40.7696 14.9051 39.2823 14.9454C38.3988 14.9494 37.4904 14.9384 36.5787 14.933C36.8453 14.7689 37.8668 14.8178 38.5326 14.7808C40.1234 14.723 41.5301 14.6034 42.7077 14.426C43.1138 14.3569 43.6217 14.3126 44.2084 14.2954C44.7955 14.2894 45.2859 14.2476 45.637 14.1734C45.988 14.0993 46.1891 13.9951 46.2226 13.87C46.2779 13.7567 46.3971 13.6515 46.5783 13.5558C46.2577 13.42 45.7485 13.29 45.1463 13.1901C44.5441 13.0902 43.8904 13.0274 43.3077 13.0133C42.064 12.9574 40.7739 12.8659 39.4704 12.7411C38.8211 12.6782 38.1843 12.642 37.6016 12.6351C37.0877 12.6297 36.5036 12.5843 35.9384 12.5056C35.3731 12.427 34.8578 12.3195 34.471 12.1996C33.9489 12.0513 33.4616 11.9014 32.9744 11.7514C32.4871 11.6015 31.9217 11.4121 31.353 11.2281C30.8515 11.1994 30.3632 11.1809 29.8946 11.1729C29.5301 11.1797 29.1048 11.1596 28.6688 11.1152C28.2328 11.0707 27.8043 11.0036 27.434 10.9219C27.6512 10.8413 27.8967 10.7702 28.1554 10.6768C27.8003 10.5535 27.5429 10.4278 27.3988 10.3073C27.2547 10.1868 27.2268 10.074 27.317 9.97582C27.3698 9.8868 26.9838 9.73747 26.8505 9.61943C26.6788 9.51767 26.6465 9.42271 26.7579 9.34699C26.8693 9.27127 27.1192 9.21833 27.4748 9.19511C27.9158 9.15226 28.2747 9.08773 28.5368 9.00416C28.6235 8.98247 28.6676 8.95276 28.6651 8.91775C28.6627 8.88274 28.6137 8.84355 28.5226 8.80376C28.4316 8.76398 28.3014 8.72486 28.144 8.68999C27.9866 8.65512 27.8071 8.62561 27.6217 8.60417C27.0538 8.54337 26.4898 8.50396 25.9621 8.4882C25.053 8.45922 24.1827 8.44102 23.3513 8.43359C22.4317 8.4224 21.4086 8.35339 20.386 8.23355C19.4705 8.12016 18.6497 8.01849 18.202 7.8018C17.7543 7.58512 17.0386 7.59202 16.4882 7.43428C16.7974 7.29208 17.3469 7.19329 18.0813 7.14786C18.5618 7.13164 18.963 7.08908 19.259 7.02289C19.555 6.95671 19.7393 6.86837 19.8001 6.76354L18.1292 6.32369C16.7947 6.11661 16.0564 6.27599 14.6146 6.19297L16.1002 6.0306C16.1301 6.01455 16.1412 5.9957 16.1332 5.97496C15.9889 5.64655 15.7595 5.57633 14.2408 5.39421L13.3884 5.28864L12.0394 5.16336C11.8233 5.09605 11.6739 5.02587 11.606 4.95982C11.5381 4.89377 11.5541 4.83417 11.6525 4.78699C11.8501 4.70763 11.9102 4.60623 11.8272 4.49211C11.6964 4.41652 11.6856 4.34684 11.7967 4.29515C11.9078 4.24345 12.1338 4.21302 12.4355 4.20914C12.6763 4.20312 12.6941 4.11576 12.8251 4.06629C12.9553 3.99811 13.178 3.94579 13.4782 3.91289C13.7784 3.87999 14.1489 3.86728 14.5646 3.87564C15.7904 3.88247 16.9419 3.85688 17.9986 3.79931L17.8092 3.77585C18.9107 3.82639 19.9404 3.83251 20.8483 3.79394C21.7582 3.74539 22.9258 3.77653 23.8922 3.74692C24.679 3.75372 25.2779 3.68652 25.5621 3.55959C25.8372 3.4384 26.8371 3.46668 27.6027 3.48985C28.0563 3.50484 28.4947 3.51119 28.9132 3.50883C29.4749 3.4814 30.1772 3.50725 30.903 3.58209C31.1208 3.60509 31.3353 3.61726 31.5259 3.61743C33.3711 3.64889 35.2129 3.6859 37.0331 3.70232C37.4532 3.69287 37.9459 3.71452 38.4532 3.76474C38.6665 3.78654 38.874 3.79558 39.048 3.79062C41.9241 3.74074 45.1696 3.868 47.9891 3.79918C48.3309 3.78292 48.7092 3.77954 49.1134 3.78913C50.0217 3.82956 50.8105 3.80354 51.36 3.71503C51.6565 3.66795 52.0366 3.64201 52.476 3.63885C52.9155 3.6357 53.4047 3.65541 53.9124 3.69672C54.7573 3.75142 55.5382 3.75735 56.1726 3.71389C57.4097 3.67374 58.7106 3.65723 60.0651 3.66449C60.4802 3.67151 60.845 3.65591 61.1314 3.61888C61.4178 3.58186 61.618 3.52441 61.7165 3.45098C61.3839 3.32617 61.0201 3.31099 60.6748 3.32196C59.3361 3.29352 58.0008 3.25951 56.6871 3.24611C55.5113 3.20782 54.3831 3.19612 53.3191 3.21117C52.7907 3.22815 52.1315 3.18944 51.4852 3.10348C50.6931 2.99462 49.8773 2.94054 49.2027 2.95217C48.7026 2.95506 48.1746 2.94568 47.6266 2.92418C47.2758 2.89824 46.9162 2.85371 46.5848 2.79515C46.4533 2.76972 46.3101 2.74833 46.1645 2.73236C46.0189 2.71639 45.8741 2.7062 45.7392 2.70242C45.6043 2.69864 45.4823 2.70135 45.3811 2.71041C45.2799 2.71946 45.2018 2.73464 45.1515 2.75498C44.644 2.92504 43.5094 2.83826 42.5378 2.81945C41.0818 2.53162 39.9981 2.70198 38.6373 2.53941C38.5297 2.52863 38.4237 2.5221 38.3257 2.52024C38.2278 2.51838 38.14 2.52121 38.0676 2.52857C35.4342 2.62642 32.3649 2.54487 29.6 2.57866C29.2951 2.5836 28.9411 2.56667 28.5785 2.52978C26.2082 2.28564 23.9292 2.21632 22.1872 2.3354C21.9753 2.34612 21.7341 2.34658 21.4748 2.33675C20.2838 2.23972 19.1448 2.20103 18.1529 2.22392C16.5985 2.21653 15.1039 2.22252 13.5245 2.20009C12.4358 2.16818 11.4806 2.20227 10.7548 2.29898C10.7318 2.33793 10.2483 2.29596 9.87793 2.2919C9.66494 2.19385 9.48027 2.1053 9.26069 2.01838C9.06439 1.91085 8.77033 1.80203 8.39855 1.69932C8.02677 1.5966 7.58598 1.50239 7.10588 1.42304C6.28505 1.32138 6.20297 1.17386 6.77733 1.11958C8.25776 0.940019 10.1193 0.866526 12.2252 0.904497C13.9855 0.907531 15.7775 0.914482 17.5628 0.932555C18.6041 0.948059 19.7019 0.982496 20.715 0.988526C21.0568 1.00178 21.4079 1.0213 21.7648 1.04689C22.2026 1.08399 22.6277 1.10421 23.0172 1.10646C24.2679 1.07521 25.6636 1.10243 27.1378 1.18682C27.6778 1.20522 28.1963 1.21142 28.6856 1.20533C29.8432 1.18243 31.0982 1.19928 32.4174 1.25546C33.2373 1.28714 34.0322 1.3037 34.7941 1.30498C35.0631 1.30844 35.2822 1.28183 35.5414 1.30198C37.8224 1.51283 39.4376 1.36053 41.4906 1.44161C42.4884 1.46422 43.4417 1.46428 44.337 1.44181C46.0844 1.44289 47.8804 1.46601 49.718 1.51106C52.1479 1.58508 54.3997 1.5594 56.7198 1.58996C57.1778 1.59638 57.6201 1.59529 58.0434 1.58668C60.1024 1.5298 62.3387 1.54186 64.6979 1.62257C65.2337 1.63423 65.7148 1.61997 66.1112 1.5807C66.5077 1.54143 66.8109 1.47798 67.002 1.39434C67.0828 1.33693 67.0304 1.26237 66.8549 1.18503C66.5637 1.08626 66.2349 0.989492 65.8739 0.896312L52.7414 0.583634C52.1898 0.567307 51.6519 0.558516 51.1304 0.557302C49.5967 0.554584 48.0157 0.530259 46.3955 0.48445C44.7944 0.44142 43.2649 0.449058 41.7137 0.436103C41.2568 0.431763 40.7878 0.421523 40.3087 0.405413C37.07 0.27791 33.9118 0.200034 30.8566 0.17234C29.5712 0.168411 28.1826 0.109895 26.8722 0.0909291C25.5619 0.0719612 23.7699 0.0650181 22.2155 0.0576252L17.4029 0.0587596C16.4563 0.0549871 15.5346 0.0662466 14.6163 0.0719466C13.5018 -0.334817 13.1178 -0.430158 11.6307 -0.608366C11.122 -0.674103 10.6045 -0.713332 10.1389 -0.721461C8.66272 -0.689306 6.81045 -0.82316 5.41057 -0.805439C4.56586 -0.81418 3.84908 -0.768993 3.33362 -0.674502C2.88616 -0.600345 2.37449 -0.541666 1.8065 -0.499352C0.250579 -0.847328 0.113457 -1.07333 1.28386 -1.16128C1.60097 -1.18172 2.03775 -1.1754 2.26674 -1.2187C2.39813 -1.24507 2.57762 -1.26015 2.79091 -1.26276C3.00419 -1.26537 3.24538 -1.25543 3.49554 -1.23372C4.28508 -1.17678 5.02511 -1.16338 5.64138 -1.19489C6.22135 -1.23659 6.93226 -1.23492 7.70559 -1.19005C8.27386 -1.11967 8.77333 -1.21905 9.26477 -1.24776C9.75621 -1.27648 10.1595 -1.32805 10.9271 -1.2509C11.0676 -1.23554 11.2072 -1.22632 11.335 -1.22394C11.4628 -1.22157 11.5755 -1.22611 11.6645 -1.23721C12.4889 -1.28689 13.4727 -1.28167 14.5359 -1.22197C16.1667 -1.16322 17.6967 -1.16102 19.073 -1.21544C19.8968 -1.26305 20.5992 -1.34749 21.1527 -1.46546C21.3036 -1.50492 21.5276 -1.52858 21.8034 -1.53417C23.1881 -1.50956 24.6917 -1.41692 26.2171 -1.26224C26.7917 -1.20026 27.3656 -1.15123 27.9266 -1.1162C29.0794 -1.03839 30.1944 -0.99479 31.2385 -0.986686C32.7558 -0.985402 34.3355 -0.955464 35.9636 -0.897142C36.9684 -0.864669 37.9366 -0.852684 38.8567 -0.861316C39.8024 -0.865385 40.8121 -0.840615 41.8629 -0.78758C42.9079 -0.744363 43.8289 -0.769263 44.5147 -0.85927C44.7405 -0.907771 44.9224 -0.965365 45.057 -1.03098C43.5269 -1.24448 41.9444 -1.35299 40.6282 -1.33464C40.1283 -1.34879 39.7132 -1.33451 39.1864 -1.41767L39.1699 -1.38985C39.0651 -1.3718 38.9069 -1.36755 38.7256 -1.37789C38.5442 -1.38824 38.3524 -1.41246 38.1866 -1.44595C38.2492 -1.55166 38.3086 -1.6518 38.3514 -1.72413C39.3543 -1.71137 40.328 -1.7124 41.2676 -1.72724C42.0597 -1.74858 43.1349 -1.56166 43.8205 -1.63202C45.1577 -1.54403 46.0092 -1.66552 47.2083 -1.63046C48.4075 -1.59541 49.7283 -1.4796 50.9274 -1.44455C51.9738 -1.42531 52.9899 -1.42113 53.9699 -1.43202C54.3081 -1.44731 54.6981 -1.44373 55.1158 -1.42148C55.703 -1.37963 56.2491 -1.37261 56.6916 -1.40125C57.1341 -1.42988 57.4551 -1.49301 57.6177 -1.58339C57.4646 -1.66805 57.2582 -1.77721 57.0203 -1.89029C57.458 -1.98321 58.1229 -2.02233 58.9162 -2.00184L60.0372 -2.00633C60.3343 -2.00388 60.5613 -2.029 60.6715 -2.07649C60.7816 -2.12399 60.7664 -2.19022 60.629 -2.2615C58.5034 -2.62031 58.4251 -2.65986 56.8651 -2.42907L54.7937 -2.53632L54.8286 -2.53796ZM82.8455 -1.55232L82.6877 -1.57187L82.8455 -1.55232ZM340.978 36.623L340.942 36.6842L340.982 36.6174L341.329 36.6604L341.352 36.6215L340.978 36.623ZM290.558 9.799C290.067 9.73223 289.571 9.67085 289.074 9.61522C288.944 9.6066 288.822 9.60465 288.719 9.60954C288.616 9.61444 288.534 9.62602 288.481 9.64333C288.442 9.71009 288.719 9.75641 288.972 9.78769C289.29 9.82979 289.616 9.85655 289.914 9.8652C290.213 9.87384 290.474 9.86408 290.671 9.83689L290.956 9.81253L290.558 9.799ZM37.7379 26.0709C38.061 26.0821 38.3675 26.084 38.6497 26.0763C39.9016 26.0224 41.1002 25.9439 42.3837 25.8938C44.0032 25.7668 45.8641 25.715 47.8966 25.7405C48.6906 25.753 49.3615 25.7118 49.8308 25.6218C50.1118 25.5735 50.4744 25.5452 50.8966 25.5388L56.27 25.3921C56.6021 25.3617 56.8893 25.319 57.1247 25.2651C56.6511 25.2064 56.3355 25.1673 56.146 25.1439C55.753 25.1373 55.4152 25.1551 55.1664 25.1957C54.8993 25.2645 54.4476 25.2917 53.9013 25.2719C53.3497 25.2556 52.8118 25.2468 52.2904 25.2456C51.3056 25.249 50.3141 25.2636 49.3261 25.2726C48.9416 25.4639 47.807 25.3771 46.8354 25.3583L46.0848 25.3668C43.6312 25.466 41.2876 25.6024 39.0651 25.7754C38.6356 25.8047 38.2655 25.8514 37.9664 25.9141C37.8537 25.9629 37.8176 26.0239 37.8609 26.0921L37.7031 26.0725L37.7379 26.0709ZM147.302 44.3585C147.897 44.3715 148.517 44.3983 149.152 44.4384C149.642 44.4793 150.119 44.5042 150.566 44.5119C153.068 44.5548 155.676 44.6538 158.354 44.8077C158.704 44.831 159.041 44.8424 159.351 44.8415L161.542 44.8025C162.233 44.7805 162.246 44.7583 161.744 44.4631C161.326 44.4058 160.904 44.3535 160.481 44.3067C160.228 44.2754 159.818 44.2246 159.722 44.2724C159.136 44.4029 158.068 44.3184 157.169 44.2907C154.568 44.2194 151.886 44.1141 149.26 44.0277C148.705 44.0066 148.167 43.9959 147.652 43.9958C147.333 43.9914 147.041 43.9997 146.79 44.0205C146.717 44.0226 146.656 44.0288 146.61 44.0386C146.565 44.0484 146.537 44.0617 146.527 44.0774C146.518 44.0932 146.528 44.1112 146.556 44.1302C146.584 44.1491 146.631 44.1686 146.692 44.1874C146.906 44.2531 147.155 44.316 147.428 44.3741L147.302 44.3585ZM166.355 1.51677L168.917 1.48178C169.225 1.47802 169.485 1.43863 169.814 1.45548C171.569 1.50887 173.193 1.494 174.618 1.4115C175.104 1.37783 175.671 1.3711 176.291 1.39167C178.186 1.45264 179.974 1.45515 181.606 1.39912C182.661 1.38788 183.649 1.35012 184.554 1.2864C184.623 1.2716 184.667 1.25152 184.681 1.22752C184.695 1.20352 184.68 1.17616 184.636 1.14731C184.625 1.12908 184.594 1.10947 184.545 1.08984C184.497 1.07021 184.432 1.051 184.355 1.03356C184.279 1.01613 184.192 1.00087 184.101 0.988832C184.011 0.976795 183.918 0.968264 183.83 0.963837C182.687 0.877584 181.601 0.847537 180.663 0.876132C179.792 0.910345 178.855 0.920357 177.866 0.90601C176.92 0.902236 176.277 1.0138 175.108 0.928673C174.613 0.900639 174.177 0.909869 173.872 0.954812C173.26 1.02931 172.405 1.03345 171.459 0.966505C170.894 0.932625 170.353 0.918096 169.858 0.923471C168.658 0.947963 167.51 0.996964 166.398 1.04431C166.047 1.05527 165.672 1.05678 165.277 1.04881L159.707 0.956099C158.368 0.927658 157.033 0.893654 155.719 0.88025C154.645 0.851148 153.645 0.860262 152.755 0.907274C151.806 0.956684 150.771 0.976743 149.669 0.967073C147.959 0.994114 146.258 1.00445 144.397 1.00082C143.209 1.00305 141.994 0.995824 140.753 0.973551C140.126 0.944883 139.593 0.968228 139.257 1.03909C139.053 1.09743 138.573 1.0499 138.174 1.03636C136.048 0.905868 134.054 0.874949 132.332 0.945755C132.112 0.957295 131.87 0.961471 131.613 0.958215C129.954 0.955785 128.235 0.939968 126.642 0.939793C126.223 0.945295 125.828 0.96039 125.463 0.984888C125.502 1.02486 125.614 1.06818 125.774 1.10586C125.935 1.14355 126.133 1.17271 126.326 1.1873C127.832 1.29896 129.287 1.35795 130.628 1.36179C132.861 1.34756 135.199 1.37954 137.62 1.45739C139.498 1.53586 141.211 1.51934 142.63 1.40905C143.74 1.32675 145.183 1.35771 146.712 1.49662C147.367 1.56296 148.002 1.58949 148.531 1.57258C149.04 1.5504 149.625 1.55578 150.25 1.5884C151.568 1.65044 152.836 1.67922 154.029 1.67417C155.194 1.65134 156.282 1.58895 157.479 1.57002C158.676 1.55109 160.5 1.56194 161.976 1.52978C163.452 1.49763 164.912 1.49329 166.355 1.51677ZM60.1829 -1.73747C60.3181 -1.56545 60.7969 -1.45838 61.3119 -1.41251C63.0875 -1.20883 64.8429 -1.12216 66.2834 -1.16704C67.0615 -1.22964 68.0988 -1.20554 69.1915 -1.09948C70.4639 -0.989229 71.6531 -0.970945 72.5497 -1.04785C72.7693 -1.06129 72.9375 -1.0897 73.0392 -1.13054C73.059 -1.16393 73.0953 -1.22512 73.1019 -1.23625C73.0077 -1.26447 72.8922 -1.29062 72.7642 -1.31267C72.6363 -1.33473 72.4994 -1.35211 72.364 -1.36347L66.4827 -1.56039L65.4578 -1.60372C63.5858 -1.71725 61.802 -1.76247 60.1829 -1.73747ZM71.7515 0.985269C72.6694 1.26617 72.6726 1.2606 73.1429 1.32481C75.4115 1.59153 77.6787 1.73552 79.6745 1.73963C80.1181 1.73881 80.4946 1.7117 80.772 1.66056C80.9147 1.65363 81.0056 1.63161 81.0247 1.5993C81.0439 1.56699 80.9898 1.52701 80.8742 1.48809L80.1443 1.29019C78.8187 1.20452 77.5121 1.13645 76.2325 1.08638C74.7426 1.02726 73.4222 1.02498 71.8777 1.0009L71.7515 0.985269ZM147.192 43.1147C148.047 43.5013 148.05 43.4957 149.482 43.5954C150.48 43.6661 151.448 43.7076 152.357 43.7186C153.468 43.7308 154.608 43.7525 155.716 43.7702C155.986 43.7826 156.215 43.7723 156.359 43.7416C156.502 43.7108 156.55 43.6616 156.492 43.6037C156.347 43.5407 156.119 43.4799 155.847 43.4309C155.574 43.382 155.273 43.3479 154.991 43.3342L154.387 43.325C153.653 43.3057 152.89 43.277 152.181 43.2728C151.721 43.2888 151.188 43.2764 150.624 43.2366C150.059 43.1967 149.479 43.1305 148.928 43.0431L147.192 43.1147ZM76.3187 -1.23198C76.5471 -1.16503 76.8054 -1.10091 77.0867 -1.04131C78.1761 -0.876142 79.329 -0.782331 80.3196 -0.778271C80.7879 -0.76804 81.2162 -0.804572 81.6931 -0.751484C82.5483 -0.680545 83.3772 -0.642757 84.1349 -0.640165C84.1349 -0.640165 84.3473 -0.655655 84.417 -0.658963L84.5621 -0.903759C84.2035 -0.960468 83.8294 -1.0068 83.4572 -1.04061C82.208 -1.10574 80.9806 -1.15027 79.7564 -1.20036C78.5323 -1.25045 78.1054 -1.27346 77.3049 -1.29497C76.9478 -1.28315 76.6175 -1.26205 76.3187 -1.23198ZM49.2684 29.201L50.9031 29.702C51.432 29.7456 51.9262 29.7534 52.3104 29.7245C52.6945 29.6955 52.9477 29.6313 53.0313 29.5416C53.1659 29.4996 53.1794 29.4374 53.0689 29.3681C52.9583 29.2987 52.7324 29.2276 52.4385 29.1696C52.1556 29.1008 51.8327 29.0392 51.4896 28.9885C51.1466 28.9378 50.7909 28.8991 50.4444 28.8748L49.2684 29.201ZM62.8785 26.7063C61.8094 26.6213 60.7868 26.5866 59.8889 26.6047C59.3232 26.6544 58.5566 26.6386 57.7464 26.5603C56.273 26.4045 54.8527 26.3613 53.7852 26.44C53.7852 26.44 53.7455 26.5067 53.5646 26.5261C53.3837 26.5455 54.1013 26.5926 54.2591 26.6122C55.4169 26.66 56.5812 26.6967 57.5876 26.7139C58.2125 26.7131 58.8734 26.7289 59.559 26.761C60.5024 26.8104 61.3971 26.8264 62.2081 26.8084C62.2081 26.8084 62.5219 26.7935 62.8752 26.7118L62.8785 26.7063ZM177.059 0.609016C176.549 0.514654 175.995 0.437962 175.44 0.384696C174.884 0.331432 174.342 0.302981 173.853 0.301465C173.478 0.296542 173.176 0.321456 172.992 0.37227C172.808 0.423082 172.755 0.496896 172.839 0.582037C173.218 0.628957 173.723 0.691517 174.008 0.726707C174.992 0.723263 175.832 0.678016 177.059 0.609016ZM272.654 8.56089C272.244 8.48493 271.792 8.42685 271.351 8.39329C270.909 8.35973 270.496 8.35204 270.157 8.37109C269.982 8.37936 270.101 8.46567 270.071 8.51575C270.052 8.5271 270.052 8.54122 270.072 8.55663C270.091 8.57204 270.13 8.58817 270.183 8.60333C270.237 8.61849 270.303 8.63212 270.375 8.64279C270.447 8.65347 270.522 8.6608 270.593 8.66401C271.038 8.69674 271.457 8.70648 271.814 8.69237C272.172 8.67825 272.455 8.64073 272.64 8.58315L272.654 8.56089ZM279.058 9.64679C278.995 9.60196 278.86 9.55525 278.679 9.5152C278.497 9.47515 278.281 9.44445 278.069 9.42875C277.696 9.42664 277.357 9.43907 277.065 9.46557C276.748 9.48601 276.976 9.61579 277.405 9.69279C277.586 9.72369 277.78 9.7478 277.971 9.76319C278.162 9.77858 278.345 9.78483 278.505 9.78145C278.665 9.77806 278.798 9.76513 278.893 9.74369C278.988 9.72224 279.042 9.69288 279.052 9.65792L279.058 9.64679ZM92.946 -0.755217C91.9904 -0.915374 91.2549 -0.875082 90.4458 -0.939453C89.6368 -1.00382 89.4375 -1.0106 89.5459 -0.907591C89.6542 -0.804588 90.2089 -0.825477 90.5561 -0.782466C91.0253 -0.725395 91.4973 -0.692624 91.9194 -0.687811C92.3415 -0.682997 92.6969 -0.706337 92.946 -0.755217ZM292.071 26.3435C291.565 26.3076 291.069 26.2822 290.591 26.2677C290.528 26.2826 290.489 26.3021 290.475 26.325C290.462 26.348 290.474 26.3739 290.512 26.4013C290.512 26.4013 290.836 26.4832 291.025 26.5067C291.723 26.5871 291.758 26.4719 292.071 26.3435ZM363.609 41.2652C363.951 41.3733 364.111 41.4468 364.385 41.4987C364.511 41.5167 364.641 41.5298 364.766 41.537C364.891 41.5442 365.007 41.5453 365.106 41.5402C365.227 41.5091 365.255 41.4614 365.185 41.4067C365.185 41.4067 364.836 41.3097 364.703 41.3052C364.324 41.2823 363.957 41.2689 363.609 41.2652ZM76.6805 -1.6709C75.9544 -1.76083 75.2598 -1.84686 74.7571 -1.74191C75.9101 -1.62897 75.9101 -1.62896 76.6805 -1.6709ZM88.441 -0.644315C87.7078 -0.836646 87.2776 -0.8541 86.9256 -0.832001C86.8508 -0.826436 86.8013 -0.81403 86.7846 -0.796667C86.7679 -0.779306 86.7848 -0.757932 86.833 -0.735775C86.8811 -0.713619 86.9577 -0.69189 87.0513 -0.673871C87.1449 -0.655853 87.2503 -0.642528 87.3516 -0.635913C87.7339 -0.630376 88.0986 -0.633187 88.441 -0.644315ZM126.177 -0.562985C126.194 -0.590803 126.214 -0.624184 126.024 -0.647644C125.975 -0.659554 125.916 -0.669795 125.855 -0.677345C125.794 -0.684895 125.733 -0.689482 125.677 -0.69065C125.677 -0.69065 125.657 -0.657267 125.644 -0.635013L126.177 -0.562985ZM152.382 45.6208L151.961 45.6462L152.15 45.6696L152.65 45.6838L152.382 45.6208ZM300.868 9.21272C300.71 9.19317 300.553 9.17362 300.529 9.21257C300.496 9.21859 300.475 9.2273 300.469 9.23795C300.463 9.24859 300.471 9.26087 300.493 9.27376C300.493 9.27376 300.714 9.30114 300.809 9.31287L300.868 9.21272ZM276.285 9.5242C276.181 9.52197 276.087 9.52458 276.009 9.53187L275.989 9.56525L276.305 9.60435L276.285 9.5242ZM62.0448 17.4779C61.9228 17.4576 61.7936 17.4416 61.666 17.431L61.508 17.4114C61.508 17.4114 61.6777 17.4683 61.7724 17.48C61.8671 17.4917 61.9435 17.4773 62.0448 17.4779Z" fill="#DF6951"/>
</svg>
