<svg width="199" height="16" viewBox="0 0 199 16" fill="none" xmlns="http://www.w3.org/2000/svg">
<path d="M8.74 7.8C9.55333 7.97333 10.2067 8.38 10.7 9.02C11.1933 9.64667 11.44 10.3667 11.44 11.18C11.44 12.3533 11.0267 13.2867 10.2 13.98C9.38667 14.66 8.24667 15 6.78 15H0.24V0.96H6.56C7.98667 0.96 9.1 1.28667 9.9 1.94C10.7133 2.59333 11.12 3.48 11.12 4.6C11.12 5.42667 10.9 6.11333 10.46 6.66C10.0333 7.20667 9.46 7.58667 8.74 7.8ZM3.66 6.64H5.9C6.46 6.64 6.88667 6.52 7.18 6.28C7.48667 6.02667 7.64 5.66 7.64 5.18C7.64 4.7 7.48667 4.33333 7.18 4.08C6.88667 3.82667 6.46 3.7 5.9 3.7H3.66V6.64ZM6.18 12.24C6.75333 12.24 7.19333 12.1133 7.5 11.86C7.82 11.5933 7.98 11.2133 7.98 10.72C7.98 10.2267 7.81333 9.84 7.48 9.56C7.16 9.28 6.71333 9.14 6.14 9.14H3.66V12.24H6.18ZM16.8436 3.7V6.54H21.4236V9.18H16.8436V12.26H22.0236V15H13.4236V0.96H22.0236V3.7H16.8436ZM27.6639 3.7V6.54H32.2439V9.18H27.6639V12.26H32.8439V15H24.2439V0.96H32.8439V3.7H27.6639ZM40.1442 15.14C39.1176 15.14 38.1976 14.9733 37.3842 14.64C36.5709 14.3067 35.9176 13.8133 35.4242 13.16C34.9442 12.5067 34.6909 11.72 34.6642 10.8H38.3042C38.3576 11.32 38.5376 11.72 38.8442 12C39.1509 12.2667 39.5509 12.4 40.0442 12.4C40.5509 12.4 40.9509 12.2867 41.2442 12.06C41.5376 11.82 41.6842 11.4933 41.6842 11.08C41.6842 10.7333 41.5642 10.4467 41.3242 10.22C41.0976 9.99333 40.8109 9.80667 40.4642 9.66C40.1309 9.51333 39.6509 9.34667 39.0242 9.16C38.1176 8.88 37.3776 8.6 36.8042 8.32C36.2309 8.04 35.7376 7.62667 35.3242 7.08C34.9109 6.53333 34.7042 5.82 34.7042 4.94C34.7042 3.63333 35.1776 2.61333 36.1242 1.88C37.0709 1.13333 38.3042 0.76 39.8242 0.76C41.3709 0.76 42.6176 1.13333 43.5642 1.88C44.5109 2.61333 45.0176 3.64 45.0842 4.96H41.3842C41.3576 4.50667 41.1909 4.15333 40.8842 3.9C40.5776 3.63333 40.1842 3.5 39.7042 3.5C39.2909 3.5 38.9576 3.61333 38.7042 3.84C38.4509 4.05333 38.3242 4.36667 38.3242 4.78C38.3242 5.23333 38.5376 5.58667 38.9642 5.84C39.3909 6.09333 40.0576 6.36667 40.9642 6.66C41.8709 6.96667 42.6042 7.26 43.1642 7.54C43.7376 7.82 44.2309 8.22667 44.6442 8.76C45.0576 9.29333 45.2642 9.98 45.2642 10.82C45.2642 11.62 45.0576 12.3467 44.6442 13C44.2442 13.6533 43.6576 14.1733 42.8842 14.56C42.1109 14.9467 41.1976 15.14 40.1442 15.14ZM59.9289 15H56.5089L50.7889 6.34V15H47.3689V0.96H50.7889L56.5089 9.66V0.96H59.9289V15ZM70.908 7.8C71.7213 7.97333 72.3746 8.38 72.868 9.02C73.3613 9.64667 73.608 10.3667 73.608 11.18C73.608 12.3533 73.1946 13.2867 72.368 13.98C71.5546 14.66 70.4146 15 68.948 15H62.408V0.96H68.728C70.1546 0.96 71.268 1.28667 72.068 1.94C72.8813 2.59333 73.288 3.48 73.288 4.6C73.288 5.42667 73.068 6.11333 72.628 6.66C72.2013 7.20667 71.628 7.58667 70.908 7.8ZM65.828 6.64H68.068C68.628 6.64 69.0546 6.52 69.348 6.28C69.6546 6.02667 69.808 5.66 69.808 5.18C69.808 4.7 69.6546 4.33333 69.348 4.08C69.0546 3.82667 68.628 3.7 68.068 3.7H65.828V6.64ZM68.348 12.24C68.9213 12.24 69.3613 12.1133 69.668 11.86C69.988 11.5933 70.148 11.2133 70.148 10.72C70.148 10.2267 69.9813 9.84 69.648 9.56C69.328 9.28 68.8813 9.14 68.308 9.14H65.828V12.24H68.348ZM79.0116 0.96V15H75.5916V0.96H79.0116ZM88.65 15L85.73 9.7H84.91V15H81.49V0.96H87.23C88.3367 0.96 89.2767 1.15333 90.05 1.54C90.8367 1.92667 91.4233 2.46 91.81 3.14C92.1967 3.80667 92.39 4.55333 92.39 5.38C92.39 6.31333 92.1233 7.14667 91.59 7.88C91.07 8.61333 90.2967 9.13333 89.27 9.44L92.51 15H88.65ZM84.91 7.28H87.03C87.6567 7.28 88.1233 7.12667 88.43 6.82C88.75 6.51333 88.91 6.08 88.91 5.52C88.91 4.98667 88.75 4.56667 88.43 4.26C88.1233 3.95333 87.6567 3.8 87.03 3.8H84.91V7.28ZM99.7969 0.96C101.277 0.96 102.57 1.25333 103.677 1.84C104.784 2.42667 105.637 3.25333 106.237 4.32C106.85 5.37333 107.157 6.59333 107.157 7.98C107.157 9.35333 106.85 10.5733 106.237 11.64C105.637 12.7067 104.777 13.5333 103.657 14.12C102.55 14.7067 101.264 15 99.7969 15H94.5369V0.96H99.7969ZM99.5769 12.04C100.87 12.04 101.877 11.6867 102.597 10.98C103.317 10.2733 103.677 9.27333 103.677 7.98C103.677 6.68667 103.317 5.68 102.597 4.96C101.877 4.24 100.87 3.88 99.5769 3.88H97.9569V12.04H99.5769ZM114.148 15.14C113.121 15.14 112.201 14.9733 111.388 14.64C110.575 14.3067 109.921 13.8133 109.428 13.16C108.948 12.5067 108.695 11.72 108.668 10.8H112.308C112.361 11.32 112.541 11.72 112.848 12C113.155 12.2667 113.555 12.4 114.048 12.4C114.555 12.4 114.955 12.2867 115.248 12.06C115.541 11.82 115.688 11.4933 115.688 11.08C115.688 10.7333 115.568 10.4467 115.328 10.22C115.101 9.99333 114.815 9.80667 114.468 9.66C114.135 9.51333 113.655 9.34667 113.028 9.16C112.121 8.88 111.381 8.6 110.808 8.32C110.235 8.04 109.741 7.62667 109.328 7.08C108.915 6.53333 108.708 5.82 108.708 4.94C108.708 3.63333 109.181 2.61333 110.128 1.88C111.075 1.13333 112.308 0.76 113.828 0.76C115.375 0.76 116.621 1.13333 117.568 1.88C118.515 2.61333 119.021 3.64 119.088 4.96H115.388C115.361 4.50667 115.195 4.15333 114.888 3.9C114.581 3.63333 114.188 3.5 113.708 3.5C113.295 3.5 112.961 3.61333 112.708 3.84C112.455 4.05333 112.328 4.36667 112.328 4.78C112.328 5.23333 112.541 5.58667 112.968 5.84C113.395 6.09333 114.061 6.36667 114.968 6.66C115.875 6.96667 116.608 7.26 117.168 7.54C117.741 7.82 118.235 8.22667 118.648 8.76C119.061 9.29333 119.268 9.98 119.268 10.82C119.268 11.62 119.061 12.3467 118.648 13C118.248 13.6533 117.661 14.1733 116.888 14.56C116.115 14.9467 115.201 15.14 114.148 15.14ZM135.711 0.96V3.7H131.991V15H128.571V3.7H124.851V0.96H135.711ZM144.588 15L141.668 9.7H140.848V15H137.428V0.96H143.168C144.274 0.96 145.214 1.15333 145.988 1.54C146.774 1.92667 147.361 2.46 147.748 3.14C148.134 3.80667 148.328 4.55333 148.328 5.38C148.328 6.31333 148.061 7.14667 147.528 7.88C147.008 8.61333 146.234 9.13333 145.208 9.44L148.448 15H144.588ZM140.848 7.28H142.968C143.594 7.28 144.061 7.12667 144.368 6.82C144.688 6.51333 144.848 6.08 144.848 5.52C144.848 4.98667 144.688 4.56667 144.368 4.26C144.061 3.95333 143.594 3.8 142.968 3.8H140.848V7.28ZM159.214 12.52H153.974L153.134 15H149.554L154.634 0.96H158.594L163.674 15H160.054L159.214 12.52ZM158.334 9.88L156.594 4.74L154.874 9.88H158.334ZM178.4 0.96L173.42 15H169.14L164.16 0.96H167.8L171.28 11.56L174.78 0.96H178.4ZM183.25 3.7V6.54H187.83V9.18H183.25V12.26H188.43V15H179.83V0.96H188.43V3.7H183.25ZM194.07 12.36H198.55V15H190.65V0.96H194.07V12.36Z" fill="black"/>
</svg>
