<svg width="1277" height="378" viewBox="0 0 1277 378" fill="none" xmlns="http://www.w3.org/2000/svg">
    <path opacity="0.2" d="M1257 31.6728C1257 20.6271 1248.05 11.6729 1237 11.6729H216C144.755 11.6729 87 69.4281 87 140.673V357.113C87 368.159 95.9543 377.113 107 377.113H1237C1248.05 377.113 1257 368.159 1257 357.113V31.6728Z" fill="#DFD7F9"/>
    <g opacity="0.1">
        <mask id="mask0_1027_1784" style="mask-type:alpha" maskUnits="userSpaceOnUse" x="993" y="11" width="264" height="317">
            <path d="M993.5 12.1729H1233C1245.98 12.1729 1256.5 22.6942 1256.5 35.6729V326.8H1043C1015.66 326.8 993.5 304.638 993.5 277.3V12.1729Z" fill="url(#paint0_linear_1027_1784)" stroke="#6246E5"/>
        </mask>
        <g mask="url(#mask0_1027_1784)">
            <path d="M1323.82 171.784C1323.82 217.231 1282.77 254.162 1232.01 254.162C1181.26 254.162 1140.21 217.231 1140.21 171.784C1140.21 126.337 1181.26 89.4058 1232.01 89.4058C1282.77 89.4058 1323.82 126.337 1323.82 171.784Z" stroke="#6246E5"/>
            <path d="M1327.46 163.059C1327.46 213.927 1281.52 255.252 1224.73 255.252C1167.94 255.252 1121.99 213.927 1121.99 163.059C1121.99 112.192 1167.94 70.8669 1224.73 70.8669C1281.52 70.8669 1327.46 112.192 1327.46 163.059Z" stroke="#6246E5"/>
            <path d="M1331.11 155.972C1331.11 211.657 1280.81 256.888 1218.66 256.888C1156.5 256.888 1106.21 211.657 1106.21 155.972C1106.21 100.286 1156.5 55.0552 1218.66 55.0552C1280.81 55.0552 1331.11 100.286 1331.11 155.972Z" stroke="#6246E5"/>
            <path d="M1333.53 145.612C1333.53 205.513 1279.43 254.161 1212.58 254.161C1145.73 254.161 1091.63 205.513 1091.63 145.612C1091.63 85.7103 1145.73 37.0615 1212.58 37.0615C1279.43 37.0615 1333.53 85.7103 1333.53 145.612Z" stroke="#6246E5"/>
            <path d="M1335.96 135.525C1335.96 199.491 1278.19 251.435 1206.81 251.435C1135.43 251.435 1077.66 199.491 1077.66 135.525C1077.66 71.5581 1135.43 19.6138 1206.81 19.6138C1278.19 19.6138 1335.96 71.5581 1335.96 135.525Z" stroke="#6246E5"/>
            <path d="M1339 124.074C1339 194.365 1275.52 251.436 1197.1 251.436C1118.68 251.436 1055.2 194.365 1055.2 124.074C1055.2 53.7842 1118.68 -3.28662 1197.1 -3.28662C1275.52 -3.28662 1339 53.7842 1339 124.074Z" stroke="#6246E5"/>
        </g>
    </g>
    <g opacity="0.1">
        <mask id="mask1_1027_1784" style="mask-type:alpha" maskUnits="userSpaceOnUse" x="0" y="52" width="480" height="326">
            <rect x="479.5" y="53.4753" width="323.137" height="479" transform="rotate(90 479.5 53.4753)" fill="url(#paint1_linear_1027_1784)" stroke="#6246E5"/>
        </mask>
        <g mask="url(#mask1_1027_1784)">
            <path d="M236.505 460.493C167.121 460.493 110.966 409.929 110.966 347.664C110.966 285.399 167.121 234.834 236.505 234.834C305.89 234.834 362.045 285.399 362.045 347.664C362.045 409.929 305.89 460.493 236.505 460.493Z" fill="#F9F9F9" stroke="#6246E5"/>
            <path d="M249.774 464.967C172.146 464.967 109.309 408.394 109.309 338.717C109.309 269.039 172.146 212.467 249.774 212.467C327.402 212.467 390.239 269.039 390.239 338.717C390.239 408.394 327.402 464.967 249.774 464.967Z" stroke="#6246E5"/>
            <path d="M260.553 469.44C175.597 469.44 106.82 407.527 106.82 331.261C106.82 254.995 175.597 193.082 260.553 193.082C345.508 193.082 414.285 254.995 414.285 331.261C414.285 407.527 345.508 469.44 260.553 469.44Z" stroke="#6246E5"/>
            <path d="M276.309 472.422C184.942 472.422 110.968 405.835 110.968 323.805C110.968 241.774 184.942 175.187 276.309 175.187C367.676 175.187 441.65 241.774 441.65 323.805C441.65 405.835 367.676 472.422 276.309 472.422Z" stroke="#6246E5"/>
            <path d="M291.648 475.405C194.099 475.405 115.112 404.311 115.112 316.722C115.112 229.132 194.099 158.039 291.648 158.039C389.197 158.039 468.184 229.132 468.184 316.722C468.184 404.311 389.197 475.405 291.648 475.405Z" stroke="#6246E5"/>
            <path d="M309.062 479.133C201.895 479.133 115.113 401.03 115.113 304.793C115.113 208.556 201.895 130.452 309.062 130.452C416.228 130.452 503.011 208.556 503.011 304.793C503.011 401.03 416.228 479.133 309.062 479.133Z" stroke="#6246E5"/>
        </g>
    </g>
    <ellipse cx="1242" cy="31.4261" rx="35" ry="31.4261" fill="url(#paint2_linear_1027_1784)"/>
    <path d="M1259.61 21.5409C1260.3 22.616 1260.21 23.8962 1259.37 24.8816L1240.89 46.5271C1240.13 47.4197 1238.88 47.8747 1237.59 47.6537C1236.34 47.4367 1235.34 46.6146 1235 45.5088L1232.26 36.7736L1231.98 35.865L1231.24 35.1893L1224.19 28.6962C1223.29 27.8746 1223 26.689 1223.42 25.6038C1223.83 24.531 1224.87 23.7526 1226.15 23.6017L1256.27 20.0593C1257.64 19.8977 1258.92 20.4658 1259.61 21.5409Z" fill="white"/>
    <path d="M1232.26 36.7732L1235 45.5084C1235.34 46.6142 1236.34 47.4363 1237.59 47.6533C1238.88 47.8744 1240.13 47.4194 1240.89 46.5267L1259.37 24.8812C1260.21 23.8959 1260.3 22.6157 1259.61 21.5405L1231.98 35.8646L1232.26 36.7732Z" fill="white"/>
    <path d="M1243.22 30.0356C1243.5 30.4729 1243.34 31.0323 1242.85 31.2851L1232.26 36.7732L1231.98 35.8646L1231.24 35.189L1241.83 29.7009C1242.32 29.4482 1242.94 29.5984 1243.22 30.0356Z" fill="url(#paint3_linear_1027_1784)"/>
    <path d="M1232.26 36.7738L1242.85 31.2857C1243.34 31.033 1243.5 30.4735 1243.22 30.0363L1231.98 35.8652L1232.26 36.7738Z" fill="url(#paint4_linear_1027_1784)"/>
    <defs>
        <linearGradient id="paint0_linear_1027_1784" x1="1180.24" y1="20.5281" x2="1027.02" y2="343.443" gradientUnits="userSpaceOnUse">
            <stop stop-color="#747DEF"/>
            <stop offset="1" stop-color="#5E3BE1"/>
        </linearGradient>
        <linearGradient id="paint1_linear_1027_1784" x1="709.891" y1="66.4423" x2="447.079" y2="513.627" gradientUnits="userSpaceOnUse">
            <stop stop-color="#747DEF"/>
            <stop offset="1" stop-color="#5E3BE1"/>
        </linearGradient>
        <linearGradient id="paint2_linear_1027_1784" x1="1256.65" y1="1.76339" x2="1231.74" y2="71.667" gradientUnits="userSpaceOnUse">
            <stop stop-color="#747DEF"/>
            <stop offset="1" stop-color="#5E3BE1"/>
        </linearGradient>
        <linearGradient id="paint3_linear_1027_1784" x1="1239.41" y1="31.0167" x2="1240.36" y2="33.147" gradientUnits="userSpaceOnUse">
            <stop stop-color="#747DEF"/>
            <stop offset="1" stop-color="#5E3BE1"/>
        </linearGradient>
        <linearGradient id="paint4_linear_1027_1784" x1="1239.9" y1="31.7872" x2="1240.41" y2="32.8424" gradientUnits="userSpaceOnUse">
            <stop stop-color="#747DEF"/>
            <stop offset="1" stop-color="#5E3BE1"/>
        </linearGradient>
    </defs>
</svg>
