<svg width="82" height="86" viewBox="0 0 82 86" fill="none" xmlns="http://www.w3.org/2000/svg">
    <path d="M39.341 2.61274C39.7958 2.21759 40.3781 2 40.9806 2C41.5831 2 42.1653 2.21759 42.6202 2.61274L50.7368 9.66274C50.9897 9.88253 51.2841 10.0493 51.6026 10.1531C51.9211 10.2569 52.2572 10.2956 52.591 10.2669L63.3077 9.33357C63.9077 9.28204 64.5061 9.44882 64.993 9.80325C65.4798 10.1577 65.8224 10.6759 65.9577 11.2627L68.3827 21.7377C68.4575 22.0651 68.5976 22.374 68.7945 22.646C68.9913 22.918 69.241 23.1476 69.5285 23.3211L78.7452 28.8627C79.2609 29.1733 79.6473 29.6595 79.8333 30.232C80.0193 30.8046 79.9924 31.4251 79.7577 31.9794L75.5577 41.8794C75.427 42.1879 75.3597 42.5194 75.3597 42.8544C75.3597 43.1894 75.427 43.5209 75.5577 43.8294L79.7577 53.7294C79.9936 54.2842 80.0211 54.9057 79.835 55.4791C79.6489 56.0526 79.2619 56.5396 78.7452 56.8502L69.5285 62.3919C69.2414 62.5649 68.992 62.7938 68.7952 63.0651C68.5983 63.3364 68.4581 63.6445 68.3827 63.9711L65.9577 74.4461C65.8224 75.0329 65.4798 75.5511 64.993 75.9056C64.5061 76.26 63.9077 76.4268 63.3077 76.3752L52.591 75.4419C52.2575 75.4127 51.9216 75.4507 51.6031 75.5538C51.2845 75.6568 50.99 75.8228 50.7368 76.0419L42.616 83.0961C42.1612 83.4912 41.5789 83.7088 40.9764 83.7088C40.3739 83.7088 39.7917 83.4912 39.3368 83.0961L31.2202 76.0419C30.967 75.8228 30.6725 75.6568 30.354 75.5538C30.0355 75.4507 29.6995 75.4127 29.366 75.4419L18.6493 76.3752C18.0493 76.4268 17.4509 76.26 16.9641 75.9056C16.4772 75.5511 16.1346 75.0329 15.9993 74.4461L13.5743 63.9711C13.4995 63.6437 13.3594 63.3348 13.1626 63.0628C12.9657 62.7908 12.716 62.5612 12.4285 62.3877L3.21184 56.8461C2.6961 56.5355 2.30974 56.0493 2.12373 55.4768C1.93773 54.9042 1.96457 54.2838 2.19934 53.7294L6.39934 43.8294C6.52999 43.5209 6.59731 43.1894 6.59731 42.8544C6.59731 42.5194 6.52999 42.1879 6.39934 41.8794L2.19934 31.9794C1.96342 31.4246 1.93596 30.8031 2.12202 30.2297C2.30808 29.6562 2.69512 29.1692 3.21184 28.8586L12.4285 23.3169C12.7156 23.1439 12.965 22.915 13.1618 22.6437C13.3587 22.3724 13.499 22.0643 13.5743 21.7377L15.9993 11.2627C16.1346 10.6759 16.4772 10.1577 16.9641 9.80325C17.4509 9.44882 18.0493 9.28204 18.6493 9.33357L29.366 10.2669C29.6998 10.2956 30.0359 10.2569 30.3544 10.1531C30.673 10.0493 30.9674 9.88253 31.2202 9.66274L39.341 2.61274V2.61274Z" stroke="#F24E1E" stroke-width="3"/>
    <path d="M28.4785 47.021L36.8118 55.3543L57.6452 34.521" stroke="#F24E1E" stroke-width="3" stroke-linecap="round" stroke-linejoin="round"/>
</svg>
