<svg width="88" height="91" viewBox="0 0 88 91" fill="none" xmlns="http://www.w3.org/2000/svg">
    <path d="M18.75 25C16.2777 25 13.861 24.2669 11.8054 22.8934C9.74976 21.5199 8.1476 19.5676 7.20151 17.2835C6.25541 14.9995 6.00787 12.4861 6.49018 10.0614C6.9725 7.63661 8.16301 5.40933 9.91116 3.66117C11.6593 1.91301 13.8866 0.722505 16.3114 0.24019C18.7361 -0.242126 21.2495 0.00541601 23.5335 0.951511C25.8176 1.89761 27.7699 3.49976 29.1434 5.55538C30.5169 7.61099 31.25 10.0277 31.25 12.5C31.25 15.8152 29.933 18.9946 27.5888 21.3388C25.2446 23.683 22.0652 25 18.75 25ZM18.75 6.25001C17.5139 6.25001 16.3055 6.61656 15.2777 7.30332C14.2499 7.99008 13.4488 8.9662 12.9758 10.1082C12.5027 11.2503 12.3789 12.5069 12.6201 13.7193C12.8612 14.9317 13.4565 16.0453 14.3306 16.9194C15.2047 17.7935 16.3183 18.3888 17.5307 18.6299C18.7431 18.8711 19.9997 18.7473 21.1418 18.2743C22.2838 17.8012 23.2599 17.0001 23.9467 15.9723C24.6334 14.9445 25 13.7361 25 12.5C25 10.8424 24.3415 9.25269 23.1694 8.08059C21.9973 6.90849 20.4076 6.25001 18.75 6.25001ZM68.75 25C66.2777 25 63.861 24.2669 61.8054 22.8934C59.7498 21.5199 58.1476 19.5676 57.2015 17.2835C56.2554 14.9995 56.0079 12.4861 56.4902 10.0614C56.9725 7.63661 58.163 5.40933 59.9112 3.66117C61.6593 1.91301 63.8866 0.722505 66.3114 0.24019C68.7361 -0.242126 71.2495 0.00541601 73.5335 0.951511C75.8176 1.89761 77.7699 3.49976 79.1434 5.55538C80.5169 7.61099 81.25 10.0277 81.25 12.5C81.25 15.8152 79.933 18.9946 77.5888 21.3388C75.2446 23.683 72.0652 25 68.75 25ZM68.75 6.25001C67.5139 6.25001 66.3055 6.61656 65.2777 7.30332C64.2499 7.99008 63.4488 8.9662 62.9758 10.1082C62.5027 11.2503 62.3789 12.5069 62.6201 13.7193C62.8612 14.9317 63.4565 16.0453 64.3306 16.9194C65.2047 17.7935 66.3183 18.3888 67.5307 18.6299C68.7431 18.8711 69.9997 18.7473 71.1418 18.2743C72.2838 17.8012 73.2599 17.0001 73.9467 15.9723C74.6334 14.9445 75 13.7361 75 12.5C75 10.8424 74.3415 9.25269 73.1694 8.08059C71.9973 6.90849 70.4076 6.25001 68.75 6.25001ZM75 90.625H62.5C60.8424 90.625 59.2527 89.9665 58.0806 88.7944C56.9085 87.6223 56.25 86.0326 56.25 84.375V62.5H62.5V84.375H75V56.25H81.25V37.5C81.25 36.6712 80.9208 35.8764 80.3347 35.2903C79.7487 34.7042 78.9538 34.375 78.125 34.375H58.0625L43.75 59.375L29.4375 34.375H9.375C8.5462 34.375 7.75134 34.7042 7.16529 35.2903C6.57924 35.8764 6.25 36.6712 6.25 37.5V56.25H12.5V84.375H25V62.5H31.25V84.375C31.25 86.0326 30.5915 87.6223 29.4194 88.7944C28.2473 89.9665 26.6576 90.625 25 90.625H12.5C10.8424 90.625 9.25268 89.9665 8.08058 88.7944C6.90848 87.6223 6.25 86.0326 6.25 84.375V62.5C4.5924 62.5 3.00268 61.8415 1.83058 60.6694C0.65848 59.4973 0 57.9076 0 56.25V37.5C0 35.0136 0.987721 32.629 2.74587 30.8709C4.50403 29.1127 6.8886 28.125 9.375 28.125H33.0625L43.75 46.875L54.4375 28.125H78.125C80.6114 28.125 82.996 29.1127 84.7541 30.8709C86.5123 32.629 87.5 35.0136 87.5 37.5V56.25C87.5 57.9076 86.8415 59.4973 85.6694 60.6694C84.4973 61.8415 82.9076 62.5 81.25 62.5V84.375C81.25 86.0326 80.5915 87.6223 79.4194 88.7944C78.2473 89.9665 76.6576 90.625 75 90.625Z" fill="#F24E1E"/>
</svg>
